<?xml version="1.0" encoding="utf-8"?>
<!-- Generator: Adobe Illustrator 20.1.0, SVG Export Plug-In . SVG Version: 6.00 Build 0)  -->
<svg version="1.1" id="Layer_1" xmlns="http://www.w3.org/2000/svg" xmlns:xlink="http://www.w3.org/1999/xlink" x="0px" y="0px"
	 viewBox="0 0 368.8 368.6" style="enable-background:new 0 0 368.8 368.6;" xml:space="preserve">
<style type="text/css">
	.st0{fill:#FFFFFF;}
</style>
<g>
	<g>
		<circle class="st0" cx="184.4" cy="194.7" r="44.3"/>
	</g>
	<g>
		<path class="st0" d="M117.9,261.2c-17.8-17.8-27.5-41.4-27.5-66.5s9.8-48.7,27.5-66.5l5.8,5.8c-16.2,16.2-25.1,37.8-25.1,60.7
			s8.9,44.5,25.1,60.7L117.9,261.2z"/>
	</g>
	<g>
		<path class="st0" d="M250.9,261.2l-5.8-5.8c16.2-16.2,25.1-37.8,25.1-60.7s-8.9-44.5-25.1-60.7l5.8-5.8
			c17.8,17.8,27.5,41.4,27.5,66.5S268.7,243.4,250.9,261.2z"/>
	</g>
	<g>
		<path class="st0" d="M86.2,292.9C32,238.7,32,150.6,86.2,96.5l5.8,5.8c-51,51-51,133.9,0,184.8L86.2,292.9z"/>
	</g>
	<g>
		<path class="st0" d="M282.6,292.9l-5.8-5.8c51-51,51-133.9,0-184.8l5.8-5.8c26.2,26.2,40.7,61.1,40.7,98.2
			C323.3,231.8,308.9,266.6,282.6,292.9z"/>
	</g>
	<g>
		<path class="st0" d="M54,325.1C19.2,290.2,0,243.9,0,194.7S19.2,99.1,54,64.3l5.8,5.8C26.5,103.4,8.2,147.6,8.2,194.7
			c0,47.1,18.3,91.3,51.6,124.6L54,325.1z"/>
	</g>
	<g>
		<path class="st0" d="M314.8,325.1l-5.8-5.8c33.3-33.3,51.6-77.5,51.6-124.6c0-47.1-18.3-91.3-51.6-124.6l5.8-5.8
			c34.8,34.8,54,81.1,54,130.4S349.6,290.2,314.8,325.1z"/>
	</g>
</g>
</svg>
