<?xml version="1.0" encoding="utf-8"?>
<!-- Generator: Adobe Illustrator 22.0.1, SVG Export Plug-In . SVG Version: 6.00 Build 0)  -->
<svg version="1.1" id="Layer_1" xmlns="http://www.w3.org/2000/svg" xmlns:xlink="http://www.w3.org/1999/xlink" x="0px" y="0px"
	 viewBox="0 0 182 29.8" style="enable-background:new 0 0 182 29.8;" xml:space="preserve">
<style type="text/css">
	.st0{fill:#681410;}
	.st1{fill:#FFFFFF;}
	.st2{fill:#0E4121;}
	.st3{fill:#0E304E;}
	.st4{fill:#0C304E;}
	.st5{fill:#351855;}
</style>
<g>
	<g>
		<path class="st3" d="M3.3,28c-0.6,0-1-0.4-1-1V5.3c0-0.6,0.4-1,1-1h11.5c5.3,0,8.8,3.4,8.8,8.4c0,4.9-3.6,8.4-8.8,8.4h-4V27
			c0,0.6-0.4,1-1,1H3.3z M14,13.5c1,0,1-0.5,1-0.7c0-0.3,0-0.7-1-0.7h-3.2v1.4H14z"/>
		<path class="st3" d="M14.9,5.3c4.6,0,7.8,2.9,7.8,7.4c0,4.7-3.4,7.4-7.8,7.4h-5V27H3.3V5.3H14.9 M9.9,14.5H14c1.1,0,2-0.5,2-1.7
			c0-1.2-0.9-1.7-2-1.7H9.9V14.5 M14.9,3.3H3.3c-1.1,0-2,0.9-2,2V27c0,1.1,0.9,2,2,2h6.5c1.1,0,2-0.9,2-2v-4.8h3
			c5.8,0,9.8-3.9,9.8-9.4C24.6,7.2,20.6,3.3,14.9,3.3L14.9,3.3z"/>
		<path class="st3" d="M25.4,28c-0.6,0-1-0.4-1-1V5.3c0-0.6,0.4-1,1-1H32c0.6,0,1,0.4,1,1v14.9h7.2c0.6,0,1,0.4,1,1V27
			c0,0.6-0.4,1-1,1H25.4z"/>
		<path class="st3" d="M32,5.3v15.9h8.2V27H25.4V5.3H32 M32,3.3h-6.5c-1.1,0-2,0.9-2,2V27c0,1.1,0.9,2,2,2h14.8c1.1,0,2-0.9,2-2
			v-5.7c0-1.1-0.9-2-2-2H34V5.3C34,4.2,33.1,3.3,32,3.3L32,3.3z"/>
		<path class="st3" d="M57.9,28c-0.4,0-0.8-0.3-1-0.7l-0.6-1.8h-6.3l-0.6,1.8c-0.1,0.4-0.5,0.7-1,0.7h-7.4c-0.3,0-0.6-0.2-0.8-0.4
			c-0.2-0.3-0.2-0.6-0.1-0.9l8-21.6c0.1-0.4,0.5-0.7,0.9-0.7h8.2c0.4,0,0.8,0.3,0.9,0.7l8,21.6c0.1,0.3,0.1,0.6-0.1,0.9
			C66,27.8,65.7,28,65.3,28H57.9z M54,17.7l-0.8-2.6l-0.8,2.6H54z"/>
		<path class="st3" d="M57.4,5.3l8,21.6h-7.4l-0.8-2.5h-7.8L48.6,27h-7.4l8-21.6H57.4 M51.1,18.7h4.3l-2.1-7L51.1,18.7 M57.4,3.3
			h-8.2c-0.8,0-1.6,0.5-1.9,1.3l-8,21.6c-0.2,0.6-0.1,1.3,0.2,1.8s1,0.9,1.6,0.9h7.4c0.9,0,1.7-0.6,1.9-1.4l0.3-1.1h4.8l0.3,1.1
			c0.3,0.8,1,1.4,1.9,1.4h7.4c0.7,0,1.3-0.3,1.6-0.9s0.5-1.2,0.2-1.8l-8-21.6C58.9,3.9,58.2,3.3,57.4,3.3L57.4,3.3z"/>
		<path class="st3" d="M70.6,28c-0.6,0-1-0.4-1-1v-8.3l-8-12.8c-0.2-0.3-0.2-0.7,0-1s0.5-0.5,0.9-0.5h7.4c0.4,0,0.7,0.2,0.9,0.5
			l3.1,5.7L77,4.9c0.2-0.3,0.5-0.5,0.9-0.5h7.4c0.4,0,0.7,0.2,0.9,0.5c0.2,0.3,0.2,0.7,0,1l-7.9,12.8V27c0,0.6-0.4,1-1,1H70.6z"/>
		<path class="st3" d="M85.2,5.3l-8,13V27h-6.5v-8.6l-8.1-13h7.4l4,7.3l4-7.3H85.2 M85.2,3.3h-7.4c-0.7,0-1.4,0.4-1.8,1l-2.2,4.1
			l-2.3-4.1c-0.4-0.6-1-1-1.8-1h-7.4c-0.7,0-1.4,0.4-1.7,1c-0.4,0.6-0.3,1.4,0,2l7.8,12.5v8c0,1.1,0.9,2,2,2h6.5c1.1,0,2-0.9,2-2v-8
			l7.7-12.6c0.4-0.6,0.4-1.4,0-2C86.6,3.7,86,3.3,85.2,3.3L85.2,3.3z M85.2,7.3L85.2,7.3L85.2,7.3L85.2,7.3z"/>
		<path class="st3" d="M89.5,17.3c-0.2,0-0.4-0.1-0.6-0.2l-2.4-1.9c-0.3-0.2-0.4-0.6-0.4-0.9c0.1-0.4,0.3-0.6,0.6-0.8
			c0.3-0.1,1-0.6,1.4-1c0,0,0.1-0.1,0.1-0.1c-1.7-0.4-2.8-2-2.8-3.9c0-0.6,0.1-1.2,0.4-1.7c0.4-1,1.2-1.8,2.3-2.3
			C88.7,4.1,89.2,4,89.8,4c0.6,0,1.2,0.1,1.8,0.3c1.3,0.5,2,1.3,2.6,2.7c0.3,0.7,0.4,1.4,0.4,2.2c0,3.1-1.5,5.9-4.5,7.9
			C89.9,17.3,89.7,17.3,89.5,17.3z"/>
		<path class="st3" d="M89.8,5c0.5,0,1,0.1,1.4,0.3c1,0.5,1.6,1.1,2,2.1c0.2,0.5,0.3,1.1,0.3,1.8c0,3-1.7,5.4-4.1,7.1l-2.4-1.9
			c0.5-0.2,1.3-0.9,1.7-1.3c0.5-0.6,1-1.1,1.2-1.8c-0.2,0.1-0.5,0.1-0.8,0.1c-1.7,0-2.8-1.4-2.8-3c0-0.5,0.1-0.9,0.3-1.3
			c0.3-0.8,1-1.5,1.8-1.8C88.9,5.1,89.3,5,89.8,5 M89.8,3c-0.7,0-1.3,0.1-2,0.4c0,0-0.1,0-0.1,0c-1.3,0.6-2.3,1.6-2.8,2.8
			c-0.3,0.7-0.5,1.4-0.5,2.1c0,1.7,0.8,3.2,2,4.1c0,0-0.1,0-0.1,0c-0.7,0.3-1.1,0.9-1.2,1.6s0.2,1.4,0.7,1.8l2.4,1.9
			c0.4,0.3,0.8,0.4,1.3,0.4c0.4,0,0.8-0.1,1.2-0.4c3.2-2.3,4.9-5.3,4.9-8.8c0-0.9-0.1-1.7-0.4-2.5c0,0,0-0.1-0.1-0.1
			c-0.5-1-1.3-2.4-3.1-3.1c0,0-0.1,0-0.1-0.1C91.2,3.1,90.5,3,89.8,3L89.8,3z"/>
		<path class="st3" d="M111.3,28c-0.3,0-0.6-0.2-0.8-0.4l-6.2-8.5V27c0,0.6-0.4,1-1,1h-6.5c-0.6,0-1-0.4-1-1V5.3c0-0.6,0.4-1,1-1
			h6.7c0.3,0,0.6,0.2,0.8,0.4l5.7,7.8V5.3c0-0.6,0.4-1,1-1h6.5c0.6,0,1,0.4,1,1V27c0,0.6-0.4,1-1,1H111.3z"/>
		<path class="st3" d="M117.6,5.3V27h-6.3l-8-11v11h-6.5V5.3h6.7l7.5,10.2V5.3H117.6 M117.6,3.3h-6.5c-1.1,0-2,0.9-2,2v4.1l-3.9-5.3
			c-0.4-0.5-1-0.8-1.6-0.8h-6.7c-1.1,0-2,0.9-2,2V27c0,1.1,0.9,2,2,2h6.5c1.1,0,2-0.9,2-2v-4.8l4.4,6c0.4,0.5,1,0.8,1.6,0.8h6.3
			c1.1,0,2-0.9,2-2V5.3C119.6,4.2,118.7,3.3,117.6,3.3L117.6,3.3z"/>
		<path class="st3" d="M124.2,17.3c-0.2,0-0.4-0.1-0.6-0.2l-2.4-1.9c-0.3-0.2-0.4-0.6-0.4-0.9c0.1-0.4,0.3-0.6,0.6-0.8
			c0.3-0.1,1-0.6,1.4-1c0,0,0.1-0.1,0.1-0.1c-1.7-0.4-2.8-2-2.8-3.9c0-0.6,0.1-1.2,0.4-1.7c0.4-1,1.2-1.8,2.3-2.3
			c0.6-0.2,1.2-0.4,1.7-0.4c0.6,0,1.2,0.1,1.8,0.3c1.3,0.5,2,1.3,2.6,2.7c0.3,0.7,0.4,1.4,0.4,2.2c0,3.1-1.5,5.9-4.5,7.9
			C124.6,17.3,124.4,17.3,124.2,17.3z"/>
		<path class="st3" d="M124.5,5c0.5,0,1,0.1,1.4,0.3c1,0.5,1.6,1.1,2,2.1c0.2,0.5,0.3,1.1,0.3,1.8c0,3-1.7,5.4-4.1,7.1l-2.4-1.9
			c0.5-0.2,1.3-0.9,1.7-1.3c0.5-0.6,1-1.1,1.2-1.8c-0.2,0.1-0.5,0.1-0.8,0.1c-1.7,0-2.8-1.4-2.8-3c0-0.5,0.1-0.9,0.3-1.3
			c0.3-0.8,1-1.5,1.8-1.8C123.6,5.1,124.1,5,124.5,5 M124.5,3c-0.7,0-1.3,0.1-2,0.4c0,0-0.1,0-0.1,0c-1.3,0.6-2.3,1.6-2.8,2.8
			c-0.3,0.7-0.5,1.4-0.5,2.1c0,1.7,0.8,3.2,2,4.1c0,0-0.1,0-0.1,0c-0.7,0.3-1.1,0.9-1.2,1.6c-0.1,0.7,0.2,1.4,0.7,1.8l2.4,1.9
			c0.4,0.3,0.8,0.4,1.3,0.4c0.4,0,0.8-0.1,1.2-0.4c3.2-2.3,4.9-5.3,4.9-8.8c0-0.9-0.1-1.7-0.4-2.5c0,0,0-0.1-0.1-0.1
			c-0.5-1-1.3-2.4-3.1-3.1c0,0-0.1,0-0.1-0.1C125.9,3.1,125.2,3,124.5,3L124.5,3z"/>
		<path class="st3" d="M142.3,28.4c-7.5,0-12.9-5.1-12.9-12.2S134.8,4,142.3,4c4.7,0,8.3,2.1,10.4,6.2c0.1,0.2,0.1,0.5,0.1,0.8
			s-0.3,0.5-0.5,0.6l-3.1,1.6h3.1c0.6,0,1,0.4,1,1V23c0,0.2-0.1,0.5-0.3,0.7C150.1,26.8,146.5,28.4,142.3,28.4z M142.3,11.8
			c-2.5,0-4.3,1.9-4.3,4.4c0,0.6,0.1,1.2,0.3,1.7c0.4,1.1,1.3,2,2.4,2.4c-0.1-0.1-0.1-0.3-0.1-0.5v-5.7c0-0.6,0.4-1,1-1h3.3
			c0,0,0-0.1-0.1-0.1C144.2,12.2,143.3,11.8,142.3,11.8z"/>
		<path class="st3" d="M142.3,5c4.3,0,7.6,1.9,9.5,5.6l-5.5,2.8c-0.2-0.3-0.4-0.6-0.6-1c-0.8-1.1-2-1.7-3.4-1.7
			c-3.1,0-5.3,2.4-5.3,5.4c0,0.7,0.1,1.5,0.4,2.1c0.7,2.1,2.8,3.3,4.9,3.3c1.1,0,2.5-0.3,3.4-1v-0.8h-4v-5.7h10.5V23
			c-2.6,2.9-6,4.4-9.9,4.4c-6.7,0-11.9-4.4-11.9-11.2C130.4,9.2,135.8,5,142.3,5 M142.3,3c-8.1,0-13.9,5.5-13.9,13.2
			s5.8,13.2,13.9,13.2c4.5,0,8.4-1.7,11.4-5c0.3-0.4,0.5-0.8,0.5-1.3v-8.9c0-0.8-0.5-1.6-1.3-1.9c0.4-0.3,0.6-0.6,0.8-1
			c0.2-0.5,0.1-1.1-0.1-1.5C151.3,5.3,147.4,3,142.3,3L142.3,3z M139.6,18.3c-0.1-0.2-0.2-0.4-0.3-0.6c0,0,0-0.1,0-0.1
			c-0.2-0.4-0.2-0.9-0.2-1.4c0-0.8,0.2-1.5,0.6-2.1c0,0,0,0,0,0V18.3L139.6,18.3z"/>
		<path class="st3" d="M166.5,28.4c-7.4,0-12.8-5.1-12.8-12.2S159,4,166.5,4s12.8,5.1,12.8,12.2S173.9,28.4,166.5,28.4z M166.5,11.8
			c-2.5,0-4.2,1.8-4.2,4.4c0,0.6,0.1,1.2,0.3,1.7c0.5,1.6,2.1,2.7,3.9,2.7c2.5,0,4.2-1.8,4.2-4.4c0-0.6-0.1-1.2-0.3-1.8
			C169.7,12.7,168.3,11.8,166.5,11.8z"/>
		<path class="st3" d="M166.5,5c6.7,0,11.8,4.5,11.8,11.2c0,6.8-5.4,11.2-11.8,11.2c-6.6,0-11.8-4.5-11.8-11.2
			C154.6,9.3,160,5,166.5,5 M166.5,21.6c3.1,0,5.2-2.4,5.2-5.4c0-0.7-0.1-1.5-0.4-2.1c-0.8-2.1-2.6-3.3-4.8-3.3
			c-3.1,0-5.2,2.4-5.2,5.4c0,0.7,0.1,1.5,0.4,2.1C162.4,20.4,164.4,21.6,166.5,21.6 M166.5,3c-8,0-13.8,5.5-13.8,13.2
			s5.8,13.2,13.8,13.2c8,0,13.8-5.5,13.8-13.2S174.5,3,166.5,3L166.5,3z M166.5,19.6c-1.1,0-2.5-0.6-2.9-1.9c0,0,0-0.1,0-0.1
			c-0.2-0.4-0.2-0.9-0.2-1.4c0-1.7,1-3.4,3.2-3.4c1.4,0,2.4,0.7,3,2c0.2,0.5,0.2,1,0.2,1.4C169.7,17.9,168.7,19.6,166.5,19.6
			L166.5,19.6z"/>
	</g>
	<g>
		<g>
			<g>
				<path class="st1" d="M3.3,26c-0.6,0-1-0.4-1-1V3.3c0-0.6,0.4-1,1-1h11.5c5.3,0,8.8,3.4,8.8,8.4c0,4.9-3.6,8.4-8.8,8.4h-4V25
					c0,0.6-0.4,1-1,1H3.3z M14,11.5c1,0,1-0.5,1-0.7c0-0.3,0-0.7-1-0.7h-3.2v1.4H14z"/>
				<path class="st4" d="M14.9,3.3c4.6,0,7.8,2.9,7.8,7.4c0,4.7-3.4,7.4-7.8,7.4h-5V25H3.3V3.3H14.9 M9.9,12.5H14c1.1,0,2-0.5,2-1.7
					C16,9.6,15.1,9,14,9H9.9V12.5 M14.9,1.3H3.3c-1.1,0-2,0.9-2,2V25c0,1.1,0.9,2,2,2h6.5c1.1,0,2-0.9,2-2v-4.8h3
					c5.8,0,9.8-3.9,9.8-9.4C24.6,5.2,20.6,1.3,14.9,1.3L14.9,1.3z"/>
			</g>
			<g>
				<path class="st1" d="M25.4,26c-0.6,0-1-0.4-1-1V3.3c0-0.6,0.4-1,1-1H32c0.6,0,1,0.4,1,1v14.9h7.2c0.6,0,1,0.4,1,1V25
					c0,0.6-0.4,1-1,1H25.4z"/>
				<path class="st4" d="M32,3.3v15.9h8.2V25H25.4V3.3H32 M32,1.3h-6.5c-1.1,0-2,0.9-2,2V25c0,1.1,0.9,2,2,2h14.8c1.1,0,2-0.9,2-2
					v-5.7c0-1.1-0.9-2-2-2H34V3.3C34,2.2,33.1,1.3,32,1.3L32,1.3z"/>
			</g>
			<g>
				<path class="st1" d="M57.9,26c-0.4,0-0.8-0.3-1-0.7l-0.6-1.8h-6.3l-0.6,1.8c-0.1,0.4-0.5,0.7-1,0.7h-7.4c-0.3,0-0.6-0.2-0.8-0.4
					c-0.2-0.3-0.2-0.6-0.1-0.9l8-21.6c0.1-0.4,0.5-0.7,0.9-0.7h8.2c0.4,0,0.8,0.3,0.9,0.7l8,21.6c0.1,0.3,0.1,0.6-0.1,0.9
					C66,25.8,65.7,26,65.3,26H57.9z M54,15.7l-0.8-2.6l-0.8,2.6H54z"/>
				<path class="st4" d="M57.4,3.3l8,21.6h-7.4l-0.8-2.5h-7.8L48.6,25h-7.4l8-21.6H57.4 M51.1,16.7h4.3l-2.1-7L51.1,16.7 M57.4,1.3
					h-8.2c-0.8,0-1.6,0.5-1.9,1.3l-8,21.6c-0.2,0.6-0.1,1.3,0.2,1.8s1,0.9,1.6,0.9h7.4c0.9,0,1.7-0.6,1.9-1.4l0.3-1.1h4.8l0.3,1.1
					c0.3,0.8,1,1.4,1.9,1.4h7.4c0.7,0,1.3-0.3,1.6-0.9s0.5-1.2,0.2-1.8l-8-21.6C58.9,1.9,58.2,1.3,57.4,1.3L57.4,1.3z"/>
			</g>
			<g>
				<path class="st1" d="M70.6,26c-0.6,0-1-0.4-1-1v-8.3l-8-12.8c-0.2-0.3-0.2-0.7,0-1s0.5-0.5,0.9-0.5h7.4c0.4,0,0.7,0.2,0.9,0.5
					l3.1,5.7L77,2.9c0.2-0.3,0.5-0.5,0.9-0.5h7.4c0.4,0,0.7,0.2,0.9,0.5c0.2,0.3,0.2,0.7,0,1l-7.9,12.8V25c0,0.6-0.4,1-1,1H70.6z"/>
				<path class="st4" d="M85.2,3.3l-8,13V25h-6.5v-8.6l-8.1-13h7.4l4,7.3l4-7.3H85.2 M85.2,1.3h-7.4c-0.7,0-1.4,0.4-1.8,1l-2.2,4.1
					l-2.3-4.1c-0.4-0.6-1-1-1.8-1h-7.4c-0.7,0-1.4,0.4-1.7,1c-0.4,0.6-0.3,1.4,0,2l7.8,12.5v8c0,1.1,0.9,2,2,2h6.5c1.1,0,2-0.9,2-2
					v-8l7.7-12.6c0.4-0.6,0.4-1.4,0-2C86.6,1.7,86,1.3,85.2,1.3L85.2,1.3z M85.2,5.3L85.2,5.3L85.2,5.3L85.2,5.3z"/>
			</g>
			<g>
				<path class="st1" d="M89.5,15.3c-0.2,0-0.4-0.1-0.6-0.2l-2.4-1.9c-0.3-0.2-0.4-0.6-0.4-0.9c0.1-0.4,0.3-0.6,0.6-0.8
					c0.3-0.1,1-0.6,1.4-1c0,0,0.1-0.1,0.1-0.1c-1.7-0.4-2.8-2-2.8-3.9c0-0.6,0.1-1.2,0.4-1.7c0.4-1,1.2-1.8,2.3-2.3
					C88.7,2.1,89.2,2,89.8,2c0.6,0,1.2,0.1,1.8,0.3c1.3,0.5,2,1.3,2.6,2.7c0.3,0.7,0.4,1.4,0.4,2.2c0,3.1-1.5,5.9-4.5,7.9
					C89.9,15.3,89.7,15.3,89.5,15.3z"/>
				<path class="st4" d="M89.8,3c0.5,0,1,0.1,1.4,0.3c1,0.5,1.6,1.1,2,2.1c0.2,0.5,0.3,1.1,0.3,1.8c0,3-1.7,5.4-4.1,7.1l-2.4-1.9
					c0.5-0.2,1.3-0.9,1.7-1.3c0.5-0.6,1-1.1,1.2-1.8c-0.2,0.1-0.5,0.1-0.8,0.1c-1.7,0-2.8-1.4-2.8-3c0-0.5,0.1-0.9,0.3-1.3
					c0.3-0.8,1-1.5,1.8-1.8C88.9,3.1,89.3,3,89.8,3 M89.8,1c-0.7,0-1.3,0.1-2,0.4c0,0-0.1,0-0.1,0c-1.3,0.6-2.3,1.6-2.8,2.8
					c-0.3,0.7-0.5,1.4-0.5,2.1c0,1.7,0.8,3.2,2,4.1c0,0-0.1,0-0.1,0c-0.7,0.3-1.1,0.9-1.2,1.6s0.2,1.4,0.7,1.8l2.4,1.9
					c0.4,0.3,0.8,0.4,1.3,0.4c0.4,0,0.8-0.1,1.2-0.4c3.2-2.3,4.9-5.3,4.9-8.8c0-0.9-0.1-1.7-0.4-2.5c0,0,0-0.1-0.1-0.1
					c-0.5-1-1.3-2.4-3.1-3.1c0,0-0.1,0-0.1-0.1C91.2,1.1,90.5,1,89.8,1L89.8,1z"/>
			</g>
			<g>
				<path class="st1" d="M111.3,26c-0.3,0-0.6-0.2-0.8-0.4l-6.2-8.5V25c0,0.6-0.4,1-1,1h-6.5c-0.6,0-1-0.4-1-1V3.3c0-0.6,0.4-1,1-1
					h6.7c0.3,0,0.6,0.2,0.8,0.4l5.7,7.8V3.3c0-0.6,0.4-1,1-1h6.5c0.6,0,1,0.4,1,1V25c0,0.6-0.4,1-1,1H111.3z"/>
				<path class="st4" d="M117.6,3.3V25h-6.3l-8-11v11h-6.5V3.3h6.7l7.5,10.2V3.3H117.6 M117.6,1.3h-6.5c-1.1,0-2,0.9-2,2v4.1
					l-3.9-5.3c-0.4-0.5-1-0.8-1.6-0.8h-6.7c-1.1,0-2,0.9-2,2V25c0,1.1,0.9,2,2,2h6.5c1.1,0,2-0.9,2-2v-4.8l4.4,6
					c0.4,0.5,1,0.8,1.6,0.8h6.3c1.1,0,2-0.9,2-2V3.3C119.6,2.2,118.7,1.3,117.6,1.3L117.6,1.3z"/>
			</g>
			<g>
				<path class="st1" d="M124.2,15.3c-0.2,0-0.4-0.1-0.6-0.2l-2.4-1.9c-0.3-0.2-0.4-0.6-0.4-0.9c0.1-0.4,0.3-0.6,0.6-0.8
					c0.3-0.1,1-0.6,1.4-1c0,0,0.1-0.1,0.1-0.1c-1.7-0.4-2.8-2-2.8-3.9c0-0.6,0.1-1.2,0.4-1.7c0.4-1,1.2-1.8,2.3-2.3
					c0.6-0.2,1.2-0.4,1.7-0.4c0.6,0,1.2,0.1,1.8,0.3c1.3,0.5,2,1.3,2.6,2.7c0.3,0.7,0.4,1.4,0.4,2.2c0,3.1-1.5,5.9-4.5,7.9
					C124.6,15.3,124.4,15.3,124.2,15.3z"/>
				<path class="st4" d="M124.5,3c0.5,0,1,0.1,1.4,0.3c1,0.5,1.6,1.1,2,2.1c0.2,0.5,0.3,1.1,0.3,1.8c0,3-1.7,5.4-4.1,7.1l-2.4-1.9
					c0.5-0.2,1.3-0.9,1.7-1.3c0.5-0.6,1-1.1,1.2-1.8c-0.2,0.1-0.5,0.1-0.8,0.1c-1.7,0-2.8-1.4-2.8-3c0-0.5,0.1-0.9,0.3-1.3
					c0.3-0.8,1-1.5,1.8-1.8C123.6,3.1,124.1,3,124.5,3 M124.5,1c-0.7,0-1.3,0.1-2,0.4c0,0-0.1,0-0.1,0c-1.3,0.6-2.3,1.6-2.8,2.8
					c-0.3,0.7-0.5,1.4-0.5,2.1c0,1.7,0.8,3.2,2,4.1c0,0-0.1,0-0.1,0c-0.7,0.3-1.1,0.9-1.2,1.6c-0.1,0.7,0.2,1.4,0.7,1.8l2.4,1.9
					c0.4,0.3,0.8,0.4,1.3,0.4c0.4,0,0.8-0.1,1.2-0.4c3.2-2.3,4.9-5.3,4.9-8.8c0-0.9-0.1-1.7-0.4-2.5c0,0,0-0.1-0.1-0.1
					c-0.5-1-1.3-2.4-3.1-3.1c0,0-0.1,0-0.1-0.1C125.9,1.1,125.2,1,124.5,1L124.5,1z"/>
			</g>
			<g>
				<path class="st1" d="M142.3,26.4c-7.5,0-12.9-5.1-12.9-12.2S134.8,2,142.3,2c4.7,0,8.3,2.1,10.4,6.2c0.1,0.2,0.1,0.5,0.1,0.8
					s-0.3,0.5-0.5,0.6l-3.1,1.6h3.1c0.6,0,1,0.4,1,1V21c0,0.2-0.1,0.5-0.3,0.7C150.1,24.8,146.5,26.4,142.3,26.4z M142.3,9.8
					c-2.5,0-4.3,1.9-4.3,4.4c0,0.6,0.1,1.2,0.3,1.7c0.4,1.1,1.3,2,2.4,2.4c-0.1-0.1-0.1-0.3-0.1-0.5v-5.7c0-0.6,0.4-1,1-1h3.3
					c0,0,0-0.1-0.1-0.1C144.2,10.2,143.3,9.8,142.3,9.8z"/>
				<path class="st4" d="M142.3,3c4.3,0,7.6,1.9,9.5,5.6l-5.5,2.8c-0.2-0.3-0.4-0.6-0.6-1c-0.8-1.1-2-1.7-3.4-1.7
					c-3.1,0-5.3,2.4-5.3,5.4c0,0.7,0.1,1.5,0.4,2.1c0.7,2.1,2.8,3.3,4.9,3.3c1.1,0,2.5-0.3,3.4-1v-0.8h-4v-5.7h10.5V21
					c-2.6,2.9-6,4.4-9.9,4.4c-6.7,0-11.9-4.4-11.9-11.2C130.4,7.2,135.8,3,142.3,3 M142.3,1c-8.1,0-13.9,5.5-13.9,13.2
					s5.8,13.2,13.9,13.2c4.5,0,8.4-1.7,11.4-5c0.3-0.4,0.5-0.8,0.5-1.3v-8.9c0-0.8-0.5-1.6-1.3-1.9c0.4-0.3,0.6-0.6,0.8-1
					c0.2-0.5,0.1-1.1-0.1-1.5C151.3,3.3,147.4,1,142.3,1L142.3,1z M139.6,16.3c-0.1-0.2-0.2-0.4-0.3-0.6c0,0,0-0.1,0-0.1
					c-0.2-0.4-0.2-0.9-0.2-1.4c0-0.8,0.2-1.5,0.6-2.1c0,0,0,0,0,0V16.3L139.6,16.3z"/>
			</g>
			<g>
				<path class="st1" d="M166.5,26.4c-7.4,0-12.8-5.1-12.8-12.2S159,2,166.5,2s12.8,5.1,12.8,12.2S173.9,26.4,166.5,26.4z
					 M166.5,9.8c-2.5,0-4.2,1.8-4.2,4.4c0,0.6,0.1,1.2,0.3,1.7c0.5,1.6,2.1,2.7,3.9,2.7c2.5,0,4.2-1.8,4.2-4.4
					c0-0.6-0.1-1.2-0.3-1.8C169.7,10.7,168.3,9.8,166.5,9.8z"/>
				<path class="st4" d="M166.5,3c6.7,0,11.8,4.5,11.8,11.2c0,6.8-5.4,11.2-11.8,11.2c-6.6,0-11.8-4.5-11.8-11.2
					C154.6,7.3,160,3,166.5,3 M166.5,19.6c3.1,0,5.2-2.4,5.2-5.4c0-0.7-0.1-1.5-0.4-2.1c-0.8-2.1-2.6-3.3-4.8-3.3
					c-3.1,0-5.2,2.4-5.2,5.4c0,0.7,0.1,1.5,0.4,2.1C162.4,18.4,164.4,19.6,166.5,19.6 M166.5,1c-8,0-13.8,5.5-13.8,13.2
					s5.8,13.2,13.8,13.2c8,0,13.8-5.5,13.8-13.2S174.5,1,166.5,1L166.5,1z M166.5,17.6c-1.1,0-2.5-0.6-2.9-1.9c0,0,0-0.1,0-0.1
					c-0.2-0.4-0.2-0.9-0.2-1.4c0-1.7,1-3.4,3.2-3.4c1.4,0,2.4,0.7,3,2c0.2,0.5,0.2,1,0.2,1.4C169.7,15.9,168.7,17.6,166.5,17.6
					L166.5,17.6z"/>
			</g>
		</g>
	</g>
</g>
</svg>
