<?xml version="1.0" encoding="utf-8"?>
<!-- Generator: Adobe Illustrator 22.0.1, SVG Export Plug-In . SVG Version: 6.00 Build 0)  -->
<svg version="1.1" id="Layer_1" xmlns="http://www.w3.org/2000/svg" xmlns:xlink="http://www.w3.org/1999/xlink" x="0px" y="0px"
	 viewBox="0 0 67.3 29.8" style="enable-background:new 0 0 67.3 29.8;" xml:space="preserve">
<style type="text/css">
	.st0{fill:#681410;}
	.st1{fill:#FFFFFF;}
	.st2{fill:#0E4121;}
	.st3{fill:#0E304E;}
	.st4{fill:#0C304E;}
	.st5{fill:#351855;}
</style>
<g>
	<g>
		<path class="st0" d="M3.1,28c-0.6,0-1-0.4-1-1V5.3c0-0.6,0.4-1,1-1h16.4c0.6,0,1,0.4,1,1V11c0,0.6-0.4,1-1,1h-8.9v0.1h8.6
			c0.6,0,1,0.4,1,1v5.7c0,0.6-0.4,1-1,1h-8.6v0.4h8.9c0.6,0,1,0.4,1,1V27c0,0.6-0.4,1-1,1H3.1z"/>
		<path class="st0" d="M19.5,5.3V11H9.6v2.1h9.6v5.7H9.6v2.4h9.9V27H3.1V5.3H19.5 M19.5,3.3H3.1c-1.1,0-2,0.9-2,2V27
			c0,1.1,0.9,2,2,2h16.4c1.1,0,2-0.9,2-2v-5.7c0-0.5-0.2-1-0.5-1.3c0.2-0.3,0.3-0.7,0.3-1v-5.7c0-0.3-0.1-0.6-0.2-0.9
			c0.3-0.3,0.4-0.8,0.4-1.2V5.3C21.5,4.2,20.6,3.3,19.5,3.3L19.5,3.3z"/>
		<path class="st0" d="M33.8,28.4c-7.5,0-12.9-5.1-12.9-12.2S26.3,4,33.8,4c4.7,0,8.3,2.1,10.4,6.2c0.1,0.2,0.1,0.5,0.1,0.8
			c-0.1,0.3-0.3,0.5-0.5,0.6l-3.1,1.6h3.1c0.6,0,1,0.4,1,1V23c0,0.2-0.1,0.5-0.3,0.7C41.6,26.8,38,28.4,33.8,28.4z M33.8,11.8
			c-2.5,0-4.3,1.9-4.3,4.4c0,0.6,0.1,1.2,0.3,1.7c0.4,1.1,1.3,2,2.4,2.4c-0.1-0.1-0.1-0.3-0.1-0.5v-5.7c0-0.6,0.4-1,1-1h3.3
			c0,0,0-0.1-0.1-0.1C35.7,12.2,34.8,11.8,33.8,11.8z"/>
		<path class="st0" d="M33.8,5c4.3,0,7.6,1.9,9.5,5.6l-5.5,2.8c-0.2-0.3-0.4-0.6-0.6-1c-0.8-1.1-2-1.7-3.4-1.7
			c-3.1,0-5.3,2.4-5.3,5.4c0,0.7,0.1,1.5,0.4,2.1c0.7,2.1,2.8,3.3,4.9,3.3c1.1,0,2.5-0.3,3.4-1v-0.8h-4v-5.7h10.5V23
			c-2.6,2.9-6,4.4-9.9,4.4c-6.7,0-11.9-4.4-11.9-11.2C21.9,9.2,27.3,5,33.8,5 M33.8,3c-8.1,0-13.9,5.5-13.9,13.2s5.8,13.2,13.9,13.2
			c4.5,0,8.4-1.7,11.4-5c0.3-0.4,0.5-0.8,0.5-1.3v-8.9c0-0.8-0.5-1.6-1.3-1.9c0.4-0.3,0.6-0.6,0.8-1c0.2-0.5,0.1-1.1-0.1-1.5
			C42.8,5.3,38.9,3,33.8,3L33.8,3z M31.1,18.3c-0.1-0.2-0.2-0.4-0.3-0.6c0,0,0-0.1,0-0.1c-0.2-0.4-0.2-0.9-0.2-1.4
			c0-0.8,0.2-1.5,0.6-2.1c0,0,0,0,0,0V18.3L31.1,18.3z"/>
		<path class="st0" d="M51.9,28c-0.6,0-1-0.4-1-1V12h-4.8c-0.6,0-1-0.4-1-1V5.3c0-0.6,0.4-1,1-1h18.1c0.6,0,1,0.4,1,1V11
			c0,0.6-0.4,1-1,1h-4.8V27c0,0.6-0.4,1-1,1H51.9z"/>
		<path class="st0" d="M64.2,5.3V11h-5.8V27h-6.5V11h-5.8V5.3H64.2 M64.2,3.3H46.1c-1.1,0-2,0.9-2,2V11c0,1.1,0.9,2,2,2h3.8V27
			c0,1.1,0.9,2,2,2h6.5c1.1,0,2-0.9,2-2V13h3.8c1.1,0,2-0.9,2-2V5.3C66.2,4.2,65.3,3.3,64.2,3.3L64.2,3.3z"/>
	</g>
	<g>
		<g>
			<g>
				<path class="st1" d="M3.1,26c-0.6,0-1-0.4-1-1V3.3c0-0.6,0.4-1,1-1h16.4c0.6,0,1,0.4,1,1V9c0,0.6-0.4,1-1,1h-8.9v0.1h8.6
					c0.6,0,1,0.4,1,1v5.7c0,0.6-0.4,1-1,1h-8.6v0.4h8.9c0.6,0,1,0.4,1,1V25c0,0.6-0.4,1-1,1H3.1z"/>
				<path class="st0" d="M19.5,3.3V9H9.6v2.1h9.6v5.7H9.6v2.4h9.9V25H3.1V3.3H19.5 M19.5,1.3H3.1c-1.1,0-2,0.9-2,2V25
					c0,1.1,0.9,2,2,2h16.4c1.1,0,2-0.9,2-2v-5.7c0-0.5-0.2-1-0.5-1.3c0.2-0.3,0.3-0.7,0.3-1v-5.7c0-0.3-0.1-0.6-0.2-0.9
					c0.3-0.3,0.4-0.8,0.4-1.2V3.3C21.5,2.2,20.6,1.3,19.5,1.3L19.5,1.3z"/>
			</g>
			<g>
				<path class="st1" d="M33.8,26.4c-7.5,0-12.9-5.1-12.9-12.2S26.3,2,33.8,2c4.7,0,8.3,2.1,10.4,6.2c0.1,0.2,0.1,0.5,0.1,0.8
					c-0.1,0.3-0.3,0.5-0.5,0.6l-3.1,1.6h3.1c0.6,0,1,0.4,1,1V21c0,0.2-0.1,0.5-0.3,0.7C41.6,24.8,38,26.4,33.8,26.4z M33.8,9.8
					c-2.5,0-4.3,1.9-4.3,4.4c0,0.6,0.1,1.2,0.3,1.7c0.4,1.1,1.3,2,2.4,2.4c-0.1-0.1-0.1-0.3-0.1-0.5v-5.7c0-0.6,0.4-1,1-1h3.3
					c0,0,0-0.1-0.1-0.1C35.7,10.2,34.8,9.8,33.8,9.8z"/>
				<path class="st0" d="M33.8,3c4.3,0,7.6,1.9,9.5,5.6l-5.5,2.8c-0.2-0.3-0.4-0.6-0.6-1c-0.8-1.1-2-1.7-3.4-1.7
					c-3.1,0-5.3,2.4-5.3,5.4c0,0.7,0.1,1.5,0.4,2.1c0.7,2.1,2.8,3.3,4.9,3.3c1.1,0,2.5-0.3,3.4-1v-0.8h-4v-5.7h10.5V21
					c-2.6,2.9-6,4.4-9.9,4.4c-6.7,0-11.9-4.4-11.9-11.2C21.9,7.2,27.3,3,33.8,3 M33.8,1c-8.1,0-13.9,5.5-13.9,13.2
					s5.8,13.2,13.9,13.2c4.5,0,8.4-1.7,11.4-5c0.3-0.4,0.5-0.8,0.5-1.3v-8.9c0-0.8-0.5-1.6-1.3-1.9c0.4-0.3,0.6-0.6,0.8-1
					c0.2-0.5,0.1-1.1-0.1-1.5C42.8,3.3,38.9,1,33.8,1L33.8,1z M31.1,16.3c-0.1-0.2-0.2-0.4-0.3-0.6c0,0,0-0.1,0-0.1
					c-0.2-0.4-0.2-0.9-0.2-1.4c0-0.8,0.2-1.5,0.6-2.1c0,0,0,0,0,0V16.3L31.1,16.3z"/>
			</g>
			<g>
				<path class="st1" d="M51.9,26c-0.6,0-1-0.4-1-1V10h-4.8c-0.6,0-1-0.4-1-1V3.3c0-0.6,0.4-1,1-1h18.1c0.6,0,1,0.4,1,1V9
					c0,0.6-0.4,1-1,1h-4.8V25c0,0.6-0.4,1-1,1H51.9z"/>
				<path class="st0" d="M64.2,3.3V9h-5.8V25h-6.5V9h-5.8V3.3H64.2 M64.2,1.3H46.1c-1.1,0-2,0.9-2,2V9c0,1.1,0.9,2,2,2h3.8V25
					c0,1.1,0.9,2,2,2h6.5c1.1,0,2-0.9,2-2V11h3.8c1.1,0,2-0.9,2-2V3.3C66.2,2.2,65.3,1.3,64.2,1.3L64.2,1.3z"/>
			</g>
		</g>
	</g>
</g>
</svg>
