<?xml version="1.0" encoding="utf-8"?>
<!-- Generator: Adobe Illustrator 22.0.1, SVG Export Plug-In . SVG Version: 6.00 Build 0)  -->
<svg version="1.1" id="Layer_1" xmlns="http://www.w3.org/2000/svg" xmlns:xlink="http://www.w3.org/1999/xlink" x="0px" y="0px"
	 viewBox="0 0 24 34.1" style="enable-background:new 0 0 24 34.1;" xml:space="preserve">
<style type="text/css">
	.st0{fill:#0E304E;}
	.st1{fill:#23D083;}
</style>
<g>
	<g>
		<path class="st0" d="M12.5,32.5c-0.6,0-1-0.4-1-1v-14l-2.8,2.8c-0.2,0.2-0.4,0.3-0.7,0.3c0,0,0,0,0,0c-0.3,0-0.5-0.1-0.7-0.3
			l-4.6-4.8c-0.4-0.4-0.4-1,0-1.4l10.2-10c0.2-0.2,0.4-0.3,0.7-0.3h7c0.6,0,1,0.4,1,1v26.7c0,0.6-0.4,1-1,1H12.5z"/>
		<path class="st0" d="M20.6,4.9v26.7h-8.1V15.1L8,19.6l-4.6-4.8l10.2-10H20.6 M20.6,2.9h-7c-0.5,0-1,0.2-1.4,0.6L2,13.4
			c-0.8,0.8-0.8,2,0,2.8L6.6,21c0.4,0.4,0.9,0.6,1.4,0.6c0,0,0,0,0,0c0.5,0,1-0.2,1.4-0.6l1.1-1.1v11.6c0,1.1,0.9,2,2,2h8.1
			c1.1,0,2-0.9,2-2V4.9C22.6,3.8,21.7,2.9,20.6,2.9L20.6,2.9z"/>
	</g>
	<g>
		<g>
			<g>
				<path class="st1" d="M12.5,30.5c-0.6,0-1-0.4-1-1v-14l-2.8,2.8c-0.2,0.2-0.4,0.3-0.7,0.3c0,0,0,0,0,0c-0.3,0-0.5-0.1-0.7-0.3
					l-4.6-4.8c-0.4-0.4-0.4-1,0-1.4l10.2-10c0.2-0.2,0.4-0.3,0.7-0.3h7c0.6,0,1,0.4,1,1v26.7c0,0.6-0.4,1-1,1H12.5z"/>
				<path class="st0" d="M20.6,2.9v26.7h-8.1V13.1L8,17.6l-4.6-4.8l10.2-10H20.6 M20.6,0.9h-7c-0.5,0-1,0.2-1.4,0.6L2,11.4
					c-0.8,0.8-0.8,2,0,2.8L6.6,19c0.4,0.4,0.9,0.6,1.4,0.6c0,0,0,0,0,0c0.5,0,1-0.2,1.4-0.6l1.1-1.1v11.6c0,1.1,0.9,2,2,2h8.1
					c1.1,0,2-0.9,2-2V2.9C22.6,1.8,21.7,0.9,20.6,0.9L20.6,0.9z"/>
			</g>
		</g>
	</g>
</g>
</svg>
