<?xml version="1.0" encoding="utf-8"?>
<!-- Generator: Adobe Illustrator 22.0.1, SVG Export Plug-In . SVG Version: 6.00 Build 0)  -->
<svg version="1.1" id="Layer_1" xmlns="http://www.w3.org/2000/svg" xmlns:xlink="http://www.w3.org/1999/xlink" x="0px" y="0px"
	 viewBox="0 0 393.6 43.9" style="enable-background:new 0 0 393.6 43.9;" xml:space="preserve">
<style type="text/css">
	.st0{fill:#0778FF;}
	.st1{fill:#FFFFFF;}
</style>
<g>
	<g>
		<path class="st0" d="M28.9,41.4c-0.2,0-0.4-0.1-0.6-0.2c-3.1-2.4-9.8-2.5-10.1-2.5H6.7c-0.6,0-1-0.4-1-1v-6.6c0-0.6,0.4-1,1-1h0.2
			c-2.1-1.8-4.5-5-4.5-10.5c0-6.5,4.2-13.1,12.2-13.1c3.2,0,5.8,1.4,7.1,3.7c1.4-2.4,3.9-3.7,6.9-3.7c3,0,5.6,1.5,7,3.7
			c1.2-2.1,3.5-3.7,7.1-3.7c8,0,12.2,6.5,12.2,13c0,6.3-3,10.5-5.6,12.9c-0.2,0.2-0.4,0.3-0.7,0.3c-0.2,0-0.4-0.1-0.6-0.2l-6.6-4.7
			c-0.2-0.2-0.4-0.4-0.4-0.7c0-0.3,0.1-0.6,0.2-0.8c1.9-2.2,2.8-4.4,2.8-6.7c0-1.3-0.3-3.5-2.2-3.5c-0.3,0-1,0-1,1.4v8.3
			c0,0.6-0.4,1-1,1h-8.6c-0.6,0-1-0.4-1-1v-7.1c0-2.6-1-2.6-1.7-2.6c-0.7,0-1.7,0-1.7,2.6v7.1c0,0.6-0.4,1-1,1h-8.6
			c-0.6,0-1-0.4-1-1v-8.3c0-1.4-0.4-1.4-1-1.4c-1.9,0-2.2,2.2-2.2,3.5c0,7.1,4.1,8,9.8,9.2c3.9,0.8,8.2,1.8,11.7,5
			c0.1,0.1,0.5,0.5,0.5,0.5c0.3,0.4,0.3,1,0,1.4l-5.4,5.4C29.4,41.3,29.2,41.4,28.9,41.4z"/>
		<path class="st0" d="M42.6,7.5c7.1,0,11.2,5.6,11.2,12c0,5.4-2.4,9.5-5.3,12.1L42,27c2.1-2.5,3-4.9,3-7.3c0-2.4-0.9-4.5-3.2-4.5
			c-1.3,0-2,0.9-2,2.4v8.3h-8.6v-7.1c0-2.6-1-3.6-2.7-3.6c-1.7,0-2.7,1-2.7,3.6v7.1h-8.6v-8.3c0-1.8-0.8-2.4-2-2.4
			c-2.3,0-3.2,2.1-3.2,4.5c0,13.2,13.6,7.3,21.8,15c0,0,0.4,0.4,0.4,0.4l-5.4,5.4c-3.4-2.6-10.2-2.7-10.7-2.7c0,0,0,0,0,0H6.7v-6.6
			h3.8c0,0-7.1-2.3-7.1-11.5c0-6.4,4.1-12.1,11.2-12.1c4.1,0,6.5,2.3,7.1,5.6c0.7-3.3,3.2-5.6,6.9-5.6c3.8,0,6.4,2.5,7,5.6
			C36.1,10.1,38.4,7.5,42.6,7.5 M42.6,5.5c-3,0-5.5,1.1-7.1,3c-1.7-1.9-4.1-3-6.9-3c-2.8,0-5.2,1.1-6.9,3c-1.6-1.9-4.1-3-7.1-3
			c-7.7,0-13.2,5.9-13.2,14.1c0,5,1.8,8.2,3.8,10.2c-0.3,0.3-0.4,0.8-0.4,1.2v6.6c0,1.1,0.9,2,2,2h11.5c2.3,0,7.2,0.5,9.5,2.2
			c0.4,0.3,0.8,0.4,1.2,0.4c0.5,0,1-0.2,1.4-0.6l5.4-5.4c0.8-0.7,0.8-1.9,0.1-2.7c0,0-0.4-0.5-0.5-0.5c0,0,0,0-0.1-0.1
			c-3.7-3.4-8.2-4.4-12.2-5.3c0,0-0.1,0-0.1,0h2.9c1.1,0,2-0.9,2-2v-7.1c0-1.2,0.3-1.5,0.3-1.5c0,0,0,0,0,0c0,0,0.1-0.1,0.4-0.1
			c0.3,0,0.4,0.1,0.4,0.1c0,0,0.3,0.3,0.3,1.5v7.1c0,1.1,0.9,2,2,2h8.6c0.1,0,0.2,0,0.4,0c0.1,0.3,0.4,0.6,0.7,0.8l6.6,4.7
			c0.4,0.3,0.8,0.4,1.2,0.4c0.5,0,1-0.2,1.4-0.5c2.7-2.5,5.9-6.9,5.9-13.6C55.9,11.4,50.3,5.5,42.6,5.5L42.6,5.5z M41.9,17.1
			C41.9,17.1,41.9,17.1,41.9,17.1c1,0,1.2,1.6,1.2,2.5c0,1.4-0.4,2.8-1.2,4.2v-6.4C41.8,17.3,41.8,17.2,41.9,17.1L41.9,17.1z
			 M15.3,24.5c-0.8-1.1-1.2-2.6-1.2-4.8c0-0.9,0.2-2.5,1.2-2.5c0,0.1,0,0.2,0,0.4V24.5L15.3,24.5z"/>
		<path class="st0" d="M73.8,40.8c-0.6,0-1-0.4-1-1V19.6c0-1-0.3-3.5-3.1-3.5c-2.8,0-3.1,2.4-3.1,3.5v20.2c0,0.6-0.4,1-1,1h-8.8
			c-0.6,0-1-0.4-1-1V19.6c0-7.6,5.9-13.1,13.9-13.1c8.1,0,14,5.5,14,13.1v20.2c0,0.6-0.4,1-1,1H73.8z"/>
		<path class="st0" d="M69.7,7.5c7.2,0,13,4.7,13,12.1v20.2h-8.8V19.6c0-2.6-1.4-4.5-4.1-4.5c-2.7,0-4.1,1.9-4.1,4.5v20.2h-8.8V19.6
			C56.7,12.1,62.6,7.5,69.7,7.5 M69.7,5.5c-8.6,0-14.9,5.9-14.9,14.1v20.2c0,1.1,0.9,2,2,2h8.8c1.1,0,2-0.9,2-2V19.6
			c0-1.6,0.7-2.5,2.1-2.5c1.4,0,2.1,0.8,2.1,2.5v20.2c0,1.1,0.9,2,2,2h8.8c1.1,0,2-0.9,2-2V19.6C84.6,11.4,78.3,5.5,69.7,5.5
			L69.7,5.5z"/>
		<path class="st0" d="M106.7,41.4c-0.2,0-0.5-0.1-0.7-0.2c-2.6-2.3-5.7-2.4-5.7-2.4l-11.5,0c-0.6,0-1-0.4-1-1v-6.6c0-0.6,0.4-1,1-1
			h0.3c-2.1-1.8-4.6-5.1-4.6-10.5c0-6.5,4.2-13.1,12.2-13.1c4.1,0,7.2,1.6,9.3,5c2.1-3.3,5.1-5,9.3-5c8,0,12.2,6.6,12.2,13.1
			c0,5.8-4.7,12.1-13.4,12.1c-8.4,0-13.4-6.1-13.4-12.1c0-0.8-0.2-3.5-2.8-3.5c-2,0-2.7,1.8-2.7,3.5c0,5.7,4,7.8,6.4,8.5
			c7.6,2.3,11.1,6,11.2,6.2c0.4,0.4,0.3,1,0,1.4l-5.4,5.4C107.2,41.3,106.9,41.4,106.7,41.4z M114,16.1c-2,0-2.7,1.6-2.7,3
			c0,0.7,0.2,3.1,2.7,3.1c2.5,0,2.7-2.4,2.7-3.1C116.7,17.7,116,16.1,114,16.1z"/>
		<path class="st0" d="M115.3,7.5c7.1,0,11.2,5.7,11.2,12.1c0,5.5-4.6,11.1-12.4,11.1c-7.8,0-12.4-5.7-12.4-11.1
			c0-2.6-1.3-4.5-3.8-4.5c-2.3,0-3.7,2-3.7,4.5c0,6.4,4.6,8.7,7.1,9.5c7.5,2.2,10.8,5.9,10.8,5.9l-5.4,5.4c-2.9-2.5-6.3-2.7-6.3-2.7
			H88.8v-6.6h3.8c0,0-7.1-2.5-7.1-11.5c0-6.4,4.1-12.1,11.2-12.1c4.6,0,7.4,2,9.3,6.1C107.9,9.6,110.7,7.5,115.3,7.5 M114,23.2
			c2.4,0,3.7-1.8,3.7-4.1c0-2.2-1.3-4-3.7-4s-3.7,1.8-3.7,4C110.3,21.4,111.6,23.2,114,23.2 M115.3,5.5c-4,0-7.1,1.4-9.3,4.2
			c-2.2-2.8-5.3-4.2-9.3-4.2c-7.7,0-13.2,5.9-13.2,14.1c0,4.9,1.8,8.1,3.8,10.2c-0.3,0.4-0.5,0.8-0.5,1.3v6.6c0,1.1,0.9,2,2,2h11.5
			c0.3,0,2.9,0.3,5.1,2.2c0.4,0.3,0.8,0.5,1.3,0.5c0.5,0,1-0.2,1.4-0.6l5.4-5.4c0.8-0.8,0.8-2,0.1-2.8c0-0.1-0.4-0.5-1.2-1.1
			c0.5,0.1,1.1,0.1,1.7,0.1c9.4,0,14.4-6.7,14.4-13.1C128.5,11.5,123,5.5,115.3,5.5L115.3,5.5z M114,21.2c-1.4,0-1.7-1.1-1.7-2.1
			c0-0.9,0.3-2,1.7-2s1.7,1.1,1.7,2C115.7,20.1,115.4,21.2,114,21.2L114,21.2z M102.5,27.4c-0.2-0.1-0.4-0.1-0.6-0.2
			c-2.1-0.7-5.6-2.5-5.6-7.6c0-0.6,0.1-2.5,1.7-2.5c1.5,0,1.8,1.6,1.8,2.5C99.7,22.3,100.7,25.1,102.5,27.4L102.5,27.4z"/>
		<path class="st0" d="M142.1,41.4c-9.2,0-14-6.6-14-13.1v-2.5c0-0.6,0.4-1,1-1h8.8c0.6,0,1,0.4,1,1v2.5c0,1.7,0.8,3.5,3.1,3.5
			c2.3,0,3.1-1.8,3.1-3.5v-9.2c0-2-0.9-3-2.8-3c-1.8,0-2.7,1-2.7,3v1c0,0.6-0.4,1-1,1h-8.8c-0.6,0-1-0.4-1-1v-2.8
			c0-6.4,5.4-10.8,13.5-10.8c8.8,0,13.6,6.9,13.6,13.4v8.4C156,34.8,151.2,41.4,142.1,41.4z"/>
		<path class="st0" d="M142.4,7.5c8.8,0,12.6,7.1,12.6,12.4v8.4c0,6.4-4.8,12.1-12.9,12.1c-8.2,0-13-5.6-13-12.1v-2.5h8.8v2.5
			c0,2.5,1.5,4.5,4.1,4.5c2.6,0,4.1-2,4.1-4.5v-9.2c0-2.4-1.2-4-3.8-4s-3.7,1.6-3.7,4v1h-8.8v-2.8C129.9,11.5,134.9,7.5,142.4,7.5
			 M142.4,5.5c-8.6,0-14.5,4.8-14.5,11.8v2.8c0,1.1,0.9,2,2,2h8.8c1.1,0,2-0.9,2-2v-1c0-1.8,0.8-2,1.7-2c0.9,0,1.8,0.2,1.8,2v9.2
			c0,0.9-0.3,2.5-2.1,2.5c-1.9,0-2.1-1.6-2.1-2.5v-2.5c0-1.1-0.9-2-2-2h-8.8c-1.1,0-2,0.9-2,2v2.5c0,7,5.1,14.1,15,14.1
			c9.8,0,14.9-7.1,14.9-14.1V20C157,13,151.9,5.5,142.4,5.5L142.4,5.5z"/>
		<path class="st0" d="M190.9,40.8c-0.6,0-1-0.4-1-1v-9.5c0-1.7-0.7-3.5-2.7-3.5c-2.6,0-2.8,2.7-2.8,3.5v5.3c0,0.6-0.4,1-1,1h-8.6
			c-0.6,0-1-0.4-1-1v-5.3c0-0.8-0.2-3.5-2.8-3.5c-2,0-2.7,1.8-2.7,3.5v9.5c0,0.6-0.4,1-1,1h-8.8c-0.6,0-1-0.4-1-1V23.9
			c0-12.4,5.8-17.4,19.9-17.4h10.9c0.6,0,1,0.4,1,1v7c0,0.6-0.4,1-1,1H175c-3.1,0-4.9,0.9-5.9,1.8c0.2,0,0.4,0,0.6-0.1c0,0,0,0,0,0
			c4.2,0,7.2,1.6,9.3,4.9c2.1-3.3,5.1-5,9.3-5c8,0,12.2,6.6,12.2,13.1v9.5c0,0.6-0.4,1-1,1H190.9z"/>
		<path class="st0" d="M188.4,7.5v7H175c-6.2,0-7.7,3.2-8,4.6c0.8-0.4,1.7-0.8,2.8-0.8c4.6,0,7.4,2,9.3,6.1c1.9-4,4.7-6.1,9.3-6.1
			c7.1,0,11.2,5.7,11.2,12.1v9.5h-8.8v-9.5c0-2.6-1.3-4.5-3.7-4.5c-2.4,0-3.8,2-3.8,4.5v5.3h-8.6v-5.3c0-2.6-1.3-4.5-3.8-4.5
			c-2.3,0-3.7,2-3.7,4.5v9.5h-8.8V23.9c0-11,4.5-16.4,18.9-16.4H188.4 M188.4,5.5h-10.9c-14.7,0-20.9,5.5-20.9,18.4v15.9
			c0,1.1,0.9,2,2,2h8.8c1.1,0,2-0.9,2-2v-9.5c0-0.6,0.1-2.5,1.7-2.5c1.5,0,1.8,1.6,1.8,2.5v5.3c0,1.1,0.9,2,2,2h8.6c1.1,0,2-0.9,2-2
			v-5.3c0-0.9,0.2-2.5,1.8-2.5c1.5,0,1.7,1.9,1.7,2.5v9.5c0,1.1,0.9,2,2,2h8.8c1.1,0,2-0.9,2-2v-9.5c0-7.9-5.1-13.6-12.4-14.1
			c0.7-0.3,1.1-1,1.1-1.8v-7C190.4,6.4,189.5,5.5,188.4,5.5L188.4,5.5z M173.2,16.6c0.6-0.1,1.2-0.1,1.9-0.1h10.7
			c-2.7,0.5-4.9,1.8-6.6,4C177.6,18.5,175.6,17.2,173.2,16.6L173.2,16.6z"/>
		<path class="st0" d="M215.4,41.4c-8.1,0-13.9-5.5-13.9-13.1c0-6,3.8-11,9.6-12.5l0.3-0.7c0.1-0.3,0.2-0.6,0.2-0.9
			c0-0.7-0.1-0.9-0.2-1c-0.1-0.1-0.2-0.3-0.4-0.5c-0.1-0.2-0.3-0.3-0.4-0.5c-0.4-0.4-0.7-0.9-1-1.5c-0.3-0.6-0.5-1.5-0.5-2.7V7.5
			c0-0.6,0.4-1,1-1h8.8c0.6,0,1,0.4,1,1v0.5c0,0.4,0.1,0.7,0.2,0.9c0.3,0.4,0.5,0.7,0.8,1c0.4,0.4,0.7,0.9,1,1.5
			c0.3,0.8,0.5,1.7,0.5,2.8c0,0.6-0.1,1.1-0.1,1.6c-0.1,0.3-0.1,0.6-0.2,0.8c4.6,2.2,7.3,6.5,7.3,11.6
			C229.4,35.9,223.5,41.4,215.4,41.4z M215.4,24.8c-2.8,0-3.1,2.4-3.1,3.5c0,1.1,0.3,3.5,3.1,3.5c2.7,0,3.1-2.2,3.1-3.5
			C218.6,27.3,218.3,24.8,215.4,24.8z"/>
		<path class="st0" d="M218.8,7.5v0.5c0,0.7,0.1,1.2,0.4,1.5c0.2,0.3,0.5,0.7,0.9,1c0.3,0.3,0.6,0.8,0.9,1.3
			c0.2,0.5,0.4,1.3,0.4,2.3c0,0.5,0,1-0.1,1.5c-0.1,0.5-0.2,1-0.3,1.5c4.7,1.9,7.5,6.1,7.5,11.1c0,7.6-5.9,12.1-13,12.1
			c-7.2,0-12.9-4.9-12.9-12.1c0-5.8,3.8-10.4,9.3-11.6l0.5-1.1c0.1-0.4,0.2-0.8,0.2-1.3c0-0.7-0.1-1.2-0.4-1.6
			c-0.3-0.3-0.6-0.7-0.9-1c-0.3-0.3-0.6-0.7-0.9-1.2c-0.3-0.5-0.4-1.3-0.4-2.3V7.5H218.8 M215.4,32.8c2.8,0,4.1-1.9,4.1-4.5
			c0-2.6-1.4-4.5-4.1-4.5c-2.7,0-4.1,1.9-4.1,4.5C211.3,30.9,212.7,32.8,215.4,32.8 M218.8,5.5H210c-1.1,0-2,0.9-2,2v0.5
			c0,1.4,0.2,2.4,0.6,3.2c0.3,0.6,0.7,1.2,1.2,1.7c0.1,0.1,0.2,0.3,0.3,0.4c0.1,0.1,0.2,0.3,0.3,0.4c0,0.1,0,0.2,0,0.4
			c0,0.2,0,0.4-0.1,0.6l-0.1,0.2c-5.9,1.8-9.8,7-9.8,13.3c0,8,6.4,14.1,14.9,14.1c8.7,0,15-5.9,15-14.1c0-5.3-2.7-9.7-7.2-12.2
			c0,0,0,0,0,0c0-0.1,0-0.1,0-0.2c0.1-0.5,0.1-1.1,0.1-1.7c0-1.3-0.2-2.3-0.6-3.2c0,0,0-0.1-0.1-0.1c-0.4-0.7-0.7-1.2-1.1-1.6
			c0,0-0.1-0.1-0.1-0.1c-0.2-0.2-0.5-0.5-0.6-0.8c0,0,0,0,0,0c0-0.1,0-0.2,0-0.3V7.5C220.8,6.4,219.9,5.5,218.8,5.5L218.8,5.5z
			 M215.4,30.8c-1.4,0-2.1-0.8-2.1-2.5c0-1.6,0.7-2.5,2.1-2.5c1.4,0,2.1,0.8,2.1,2.5C217.6,30.8,216,30.8,215.4,30.8L215.4,30.8z"/>
		<path class="st0" d="M263.3,40.8c-0.6,0-1-0.4-1-1V19.6c0-0.6-0.1-3.5-2.7-3.5c-2.6,0-2.8,2.9-2.8,3.5v13.2c0,0.6-0.4,1-1,1h-8.6
			c-0.6,0-1-0.4-1-1V19.6c0-0.8-0.2-3.5-2.8-3.5c-2.5,0-2.7,2.9-2.7,3.5v20.2c0,0.6-0.4,1-1,1H231c-0.6,0-1-0.4-1-1V19.6
			c0-7.6,5.1-13.1,12.2-13.1c4.2,0,7.2,1.6,9.3,4.9c2.1-3.3,5.1-4.9,9.3-4.9c7.1,0,12.2,5.5,12.2,13.1v20.2c0,0.6-0.4,1-1,1H263.3z"
			/>
		<path class="st0" d="M260.8,7.5c7,0,11.2,5.5,11.2,12.1v20.2h-8.8V19.6c0-2.3-1.1-4.5-3.7-4.5c-2.6,0-3.8,2.2-3.8,4.5v13.2h-8.6
			V19.6c0-2.4-1.1-4.5-3.8-4.5c-2.6,0-3.7,2.2-3.7,4.5v20.2H231V19.6c0-6.8,4.4-12.1,11.2-12.1c4.5,0,7.4,2,9.3,6.1
			C253.4,9.5,256.4,7.5,260.8,7.5 M260.8,5.5c-3.9,0-7.1,1.4-9.3,4.2c-2.2-2.8-5.3-4.2-9.3-4.2c-7.7,0-13.2,5.9-13.2,14.1v20.2
			c0,1.1,0.9,2,2,2h8.8c1.1,0,2-0.9,2-2V19.6c0-0.8,0.2-2.5,1.7-2.5c1.5,0,1.8,1.4,1.8,2.5v13.2c0,1.1,0.9,2,2,2h8.6
			c1.1,0,2-0.9,2-2V19.6c0-0.8,0.2-2.5,1.8-2.5c1.5,0,1.7,1.8,1.7,2.5v20.2c0,1.1,0.9,2,2,2h8.8c1.1,0,2-0.9,2-2V19.6
			C274.1,11.4,268.5,5.5,260.8,5.5L260.8,5.5z"/>
		<path class="st0" d="M308.8,40.8c-0.6,0-1-0.4-1-1v-9.5c0-1.7-0.7-3.5-2.7-3.5c-2.6,0-2.8,2.7-2.8,3.5v5.3c0,0.6-0.4,1-1,1h-8.6
			c-0.6,0-1-0.4-1-1v-5.3c0-0.8-0.2-3.5-2.8-3.5c-2,0-2.7,1.8-2.7,3.5v9.5c0,0.6-0.4,1-1,1h-8.8c-0.6,0-1-0.4-1-1V23.9
			c0-12.4,5.8-17.4,19.9-17.4h10.9c0.6,0,1,0.4,1,1v7c0,0.6-0.4,1-1,1H293c-3.1,0-4.9,0.9-5.9,1.8c0.2,0,0.4,0,0.6-0.1c0,0,0,0,0,0
			c4.2,0,7.2,1.6,9.3,4.9c2.1-3.3,5.1-5,9.3-5c8,0,12.2,6.6,12.2,13.1v9.5c0,0.6-0.4,1-1,1H308.8z"/>
		<path class="st0" d="M306.4,7.5v7H293c-6.2,0-7.7,3.2-8,4.6c0.8-0.4,1.7-0.8,2.8-0.8c4.6,0,7.4,2,9.3,6.1c1.9-4,4.7-6.1,9.3-6.1
			c7.1,0,11.2,5.7,11.2,12.1v9.5h-8.8v-9.5c0-2.6-1.3-4.5-3.7-4.5c-2.4,0-3.8,2-3.8,4.5v5.3h-8.6v-5.3c0-2.6-1.3-4.5-3.8-4.5
			c-2.3,0-3.7,2-3.7,4.5v9.5h-8.8V23.9c0-11,4.5-16.4,18.9-16.4H306.4 M306.4,5.5h-10.9c-14.7,0-20.9,5.5-20.9,18.4v15.9
			c0,1.1,0.9,2,2,2h8.8c1.1,0,2-0.9,2-2v-9.5c0-0.6,0.1-2.5,1.7-2.5c1.5,0,1.8,1.6,1.8,2.5v5.3c0,1.1,0.9,2,2,2h8.6c1.1,0,2-0.9,2-2
			v-5.3c0-0.9,0.2-2.5,1.8-2.5c1.5,0,1.7,1.9,1.7,2.5v9.5c0,1.1,0.9,2,2,2h8.8c1.1,0,2-0.9,2-2v-9.5c0-7.9-5.1-13.6-12.4-14.1
			c0.7-0.3,1.1-1,1.1-1.8v-7C308.4,6.4,307.5,5.5,306.4,5.5L306.4,5.5z M291.1,16.6c0.6-0.1,1.2-0.1,1.9-0.1h10.7
			c-2.7,0.5-4.9,1.8-6.6,4C295.5,18.5,293.5,17.2,291.1,16.6L291.1,16.6z"/>
		<path class="st0" d="M341.7,41.4c-0.2,0-0.5-0.1-0.7-0.2c-2.6-2.2-5.7-2.4-5.7-2.4l-11.5,0c-0.6,0-1-0.4-1-1v-6.6c0-0.6,0.4-1,1-1
			h0.3c-2.1-1.8-4.6-5.1-4.6-10.5c0-6.5,4.2-13.1,12.2-13.1c4.1,0,7.2,1.6,9.3,5c2.1-3.3,5.1-5,9.3-5c8,0,12.2,6.6,12.2,13.1
			c0,5.8-4.7,12.1-13.4,12.1c-8.4,0-13.4-6.1-13.4-12.1c0-0.8-0.2-3.5-2.8-3.5c-2,0-2.7,1.8-2.7,3.5c0,5.7,4,7.8,6.4,8.5
			c7.6,2.3,11.1,6,11.2,6.2c0.4,0.4,0.3,1,0,1.4l-5.4,5.4C342.2,41.3,341.9,41.4,341.7,41.4z M349,16.1c-2,0-2.7,1.6-2.7,3
			c0,0.7,0.2,3.1,2.7,3.1c2.5,0,2.7-2.4,2.7-3.1C351.7,17.7,351,16.1,349,16.1z"/>
		<path class="st0" d="M350.3,7.5c7.1,0,11.2,5.7,11.2,12.1c0,5.5-4.6,11.1-12.4,11.1c-7.8,0-12.4-5.7-12.4-11.1
			c0-2.6-1.3-4.5-3.8-4.5c-2.3,0-3.7,2-3.7,4.5c0,6.4,4.6,8.7,7.1,9.5c7.5,2.2,10.8,5.9,10.8,5.9l-5.4,5.4c-2.9-2.5-6.3-2.7-6.3-2.7
			h-11.6v-6.6h3.8c0,0-7.1-2.5-7.1-11.5c0-6.4,4.1-12.1,11.2-12.1c4.6,0,7.4,2,9.3,6.1C342.9,9.6,345.7,7.5,350.3,7.5 M349,23.2
			c2.4,0,3.7-1.8,3.7-4.1c0-2.2-1.3-4-3.7-4c-2.4,0-3.7,1.8-3.7,4C345.3,21.4,346.6,23.2,349,23.2 M350.3,5.5c-4,0-7.1,1.4-9.3,4.2
			c-2.2-2.8-5.3-4.2-9.3-4.2c-7.7,0-13.2,5.9-13.2,14.1c0,4.9,1.8,8.1,3.8,10.2c-0.3,0.4-0.5,0.8-0.5,1.3v6.6c0,1.1,0.9,2,2,2h11.5
			c0.3,0,2.9,0.3,5.1,2.2c0.4,0.3,0.8,0.5,1.3,0.5c0.5,0,1-0.2,1.4-0.6l5.4-5.4c0.8-0.8,0.8-2,0.1-2.8c0-0.1-0.4-0.5-1.2-1.1
			c0.5,0.1,1.1,0.1,1.7,0.1c9.4,0,14.4-6.7,14.4-13.1C363.6,11.5,358,5.5,350.3,5.5L350.3,5.5z M349,21.2c-1.4,0-1.7-1.1-1.7-2.1
			c0-0.9,0.3-2,1.7-2c1.4,0,1.7,1.1,1.7,2C350.7,20.1,350.4,21.2,349,21.2L349,21.2z M337.5,27.4c-0.2-0.1-0.4-0.1-0.6-0.2
			c-2.1-0.7-5.6-2.5-5.6-7.6c0-0.6,0.1-2.5,1.7-2.5c1.5,0,1.8,1.6,1.8,2.5C334.7,22.3,335.7,25.1,337.5,27.4L337.5,27.4z"/>
		<path class="st0" d="M381.5,40.8c-0.6,0-1-0.4-1-1V19.6c0-1-0.3-3.5-3.1-3.5c-2.8,0-3.1,2.4-3.1,3.5v20.2c0,0.6-0.4,1-1,1h-8.8
			c-0.6,0-1-0.4-1-1V19.6c0-7.6,5.9-13.1,13.9-13.1c8.1,0,14,5.5,14,13.1v20.2c0,0.6-0.4,1-1,1H381.5z"/>
		<path class="st0" d="M377.3,7.5c7.2,0,13,4.7,13,12.1v20.2h-8.8V19.6c0-2.6-1.4-4.5-4.1-4.5c-2.7,0-4.1,1.9-4.1,4.5v20.2h-8.8
			V19.6C364.4,12.1,370.3,7.5,377.3,7.5 M377.3,5.5c-8.6,0-14.9,5.9-14.9,14.1v20.2c0,1.1,0.9,2,2,2h8.8c1.1,0,2-0.9,2-2V19.6
			c0-1.6,0.7-2.5,2.1-2.5c1.4,0,2.1,0.8,2.1,2.5v20.2c0,1.1,0.9,2,2,2h8.8c1.1,0,2-0.9,2-2V19.6C392.3,11.4,386,5.5,377.3,5.5
			L377.3,5.5z"/>
	</g>
	<g>
		<g>
			<g>
				<path class="st1" d="M28.9,39.4c-0.2,0-0.4-0.1-0.6-0.2c-3.1-2.4-9.8-2.5-10.1-2.5H6.7c-0.6,0-1-0.4-1-1v-6.6c0-0.6,0.4-1,1-1
					h0.2c-2.1-1.8-4.5-5-4.5-10.5c0-6.5,4.2-13.1,12.2-13.1c3.2,0,5.8,1.4,7.1,3.7c1.4-2.4,3.9-3.7,6.9-3.7c3,0,5.6,1.5,7,3.7
					c1.2-2.1,3.5-3.7,7.1-3.7c8,0,12.2,6.5,12.2,13c0,6.3-3,10.5-5.6,12.9c-0.2,0.2-0.4,0.3-0.7,0.3c-0.2,0-0.4-0.1-0.6-0.2
					l-6.6-4.7c-0.2-0.2-0.4-0.4-0.4-0.7c0-0.3,0.1-0.6,0.2-0.8c1.9-2.2,2.8-4.4,2.8-6.7c0-1.3-0.3-3.5-2.2-3.5c-0.3,0-1,0-1,1.4v8.3
					c0,0.6-0.4,1-1,1h-8.6c-0.6,0-1-0.4-1-1v-7.1c0-2.6-1-2.6-1.7-2.6c-0.7,0-1.7,0-1.7,2.6v7.1c0,0.6-0.4,1-1,1h-8.6
					c-0.6,0-1-0.4-1-1v-8.3c0-1.4-0.4-1.4-1-1.4c-1.9,0-2.2,2.2-2.2,3.5c0,7.1,4.1,8,9.8,9.2c3.9,0.8,8.2,1.8,11.7,5
					c0.1,0.1,0.5,0.5,0.5,0.5c0.3,0.4,0.3,1,0,1.4l-5.4,5.4C29.4,39.3,29.2,39.4,28.9,39.4z"/>
				<path class="st0" d="M42.6,5.5c7.1,0,11.2,5.6,11.2,12c0,5.4-2.4,9.5-5.3,12.1L42,25c2.1-2.5,3-4.9,3-7.3c0-2.4-0.9-4.5-3.2-4.5
					c-1.3,0-2,0.9-2,2.4v8.3h-8.6v-7.1c0-2.6-1-3.6-2.7-3.6c-1.7,0-2.7,1-2.7,3.6v7.1h-8.6v-8.3c0-1.8-0.8-2.4-2-2.4
					c-2.3,0-3.2,2.1-3.2,4.5c0,13.2,13.6,7.3,21.8,15c0,0,0.4,0.4,0.4,0.4l-5.4,5.4c-3.4-2.6-10.2-2.7-10.7-2.7c0,0,0,0,0,0H6.7
					v-6.6h3.8c0,0-7.1-2.3-7.1-11.5c0-6.4,4.1-12.1,11.2-12.1c4.1,0,6.5,2.3,7.1,5.6c0.7-3.3,3.2-5.6,6.9-5.6c3.8,0,6.4,2.5,7,5.6
					C36.1,8.1,38.4,5.5,42.6,5.5 M42.6,3.5c-3,0-5.5,1.1-7.1,3c-1.7-1.9-4.1-3-6.9-3c-2.8,0-5.2,1.1-6.9,3c-1.6-1.9-4.1-3-7.1-3
					C6.9,3.5,1.3,9.5,1.3,17.6c0,5,1.8,8.2,3.8,10.2c-0.3,0.3-0.4,0.8-0.4,1.2v6.6c0,1.1,0.9,2,2,2h11.5c2.3,0,7.2,0.5,9.5,2.2
					c0.4,0.3,0.8,0.4,1.2,0.4c0.5,0,1-0.2,1.4-0.6l5.4-5.4c0.8-0.7,0.8-1.9,0.1-2.7c0,0-0.4-0.5-0.5-0.5c0,0,0,0-0.1-0.1
					c-3.7-3.4-8.2-4.4-12.2-5.3c0,0-0.1,0-0.1,0h2.9c1.1,0,2-0.9,2-2v-7.1c0-1.2,0.3-1.5,0.3-1.5c0,0,0,0,0,0c0,0,0.1-0.1,0.4-0.1
					c0.3,0,0.4,0.1,0.4,0.1c0,0,0.3,0.3,0.3,1.5v7.1c0,1.1,0.9,2,2,2h8.6c0.1,0,0.2,0,0.4,0c0.1,0.3,0.4,0.6,0.7,0.8l6.6,4.7
					c0.4,0.3,0.8,0.4,1.2,0.4c0.5,0,1-0.2,1.4-0.5c2.7-2.5,5.9-6.9,5.9-13.6C55.9,9.4,50.3,3.5,42.6,3.5L42.6,3.5z M41.9,15.1
					C41.9,15.1,41.9,15.1,41.9,15.1c1,0,1.2,1.6,1.2,2.5c0,1.4-0.4,2.8-1.2,4.2v-6.4C41.8,15.3,41.8,15.2,41.9,15.1L41.9,15.1z
					 M15.3,22.5c-0.8-1.1-1.2-2.6-1.2-4.8c0-0.9,0.2-2.5,1.2-2.5c0,0.1,0,0.2,0,0.4V22.5L15.3,22.5z"/>
			</g>
			<g>
				<path class="st1" d="M73.8,38.8c-0.6,0-1-0.4-1-1V17.6c0-1-0.3-3.5-3.1-3.5c-2.8,0-3.1,2.4-3.1,3.5v20.2c0,0.6-0.4,1-1,1h-8.8
					c-0.6,0-1-0.4-1-1V17.6c0-7.6,5.9-13.1,13.9-13.1c8.1,0,14,5.5,14,13.1v20.2c0,0.6-0.4,1-1,1H73.8z"/>
				<path class="st0" d="M69.7,5.5c7.2,0,13,4.7,13,12.1v20.2h-8.8V17.6c0-2.6-1.4-4.5-4.1-4.5c-2.7,0-4.1,1.9-4.1,4.5v20.2h-8.8
					V17.6C56.7,10.1,62.6,5.5,69.7,5.5 M69.7,3.5c-8.6,0-14.9,5.9-14.9,14.1v20.2c0,1.1,0.9,2,2,2h8.8c1.1,0,2-0.9,2-2V17.6
					c0-1.6,0.7-2.5,2.1-2.5c1.4,0,2.1,0.8,2.1,2.5v20.2c0,1.1,0.9,2,2,2h8.8c1.1,0,2-0.9,2-2V17.6C84.6,9.4,78.3,3.5,69.7,3.5
					L69.7,3.5z"/>
			</g>
			<g>
				<path class="st1" d="M106.7,39.4c-0.2,0-0.5-0.1-0.7-0.2c-2.6-2.3-5.7-2.4-5.7-2.4l-11.5,0c-0.6,0-1-0.4-1-1v-6.6
					c0-0.6,0.4-1,1-1h0.3c-2.1-1.8-4.6-5.1-4.6-10.5c0-6.5,4.2-13.1,12.2-13.1c4.1,0,7.2,1.6,9.3,5c2.1-3.3,5.1-5,9.3-5
					c8,0,12.2,6.6,12.2,13.1c0,5.8-4.7,12.1-13.4,12.1c-8.4,0-13.4-6.1-13.4-12.1c0-0.8-0.2-3.5-2.8-3.5c-2,0-2.7,1.8-2.7,3.5
					c0,5.7,4,7.8,6.4,8.5c7.6,2.3,11.1,6,11.2,6.2c0.4,0.4,0.3,1,0,1.4l-5.4,5.4C107.2,39.3,106.9,39.4,106.7,39.4z M114,14.1
					c-2,0-2.7,1.6-2.7,3c0,0.7,0.2,3.1,2.7,3.1c2.5,0,2.7-2.4,2.7-3.1C116.7,15.7,116,14.1,114,14.1z"/>
				<path class="st0" d="M115.3,5.5c7.1,0,11.2,5.7,11.2,12.1c0,5.5-4.6,11.1-12.4,11.1c-7.8,0-12.4-5.7-12.4-11.1
					c0-2.6-1.3-4.5-3.8-4.5c-2.3,0-3.7,2-3.7,4.5c0,6.4,4.6,8.7,7.1,9.5c7.5,2.2,10.8,5.9,10.8,5.9l-5.4,5.4
					c-2.9-2.5-6.3-2.7-6.3-2.7H88.8v-6.6h3.8c0,0-7.1-2.5-7.1-11.5c0-6.4,4.1-12.1,11.2-12.1c4.6,0,7.4,2,9.3,6.1
					C107.9,7.6,110.7,5.5,115.3,5.5 M114,21.2c2.4,0,3.7-1.8,3.7-4.1c0-2.2-1.3-4-3.7-4s-3.7,1.8-3.7,4
					C110.3,19.4,111.6,21.2,114,21.2 M115.3,3.5c-4,0-7.1,1.4-9.3,4.2c-2.2-2.8-5.3-4.2-9.3-4.2c-7.7,0-13.2,5.9-13.2,14.1
					c0,4.9,1.8,8.1,3.8,10.2c-0.3,0.4-0.5,0.8-0.5,1.3v6.6c0,1.1,0.9,2,2,2h11.5c0.3,0,2.9,0.3,5.1,2.2c0.4,0.3,0.8,0.5,1.3,0.5
					c0.5,0,1-0.2,1.4-0.6l5.4-5.4c0.8-0.8,0.8-2,0.1-2.8c0-0.1-0.4-0.5-1.2-1.1c0.5,0.1,1.1,0.1,1.7,0.1c9.4,0,14.4-6.7,14.4-13.1
					C128.5,9.5,123,3.5,115.3,3.5L115.3,3.5z M114,19.2c-1.4,0-1.7-1.1-1.7-2.1c0-0.9,0.3-2,1.7-2s1.7,1.1,1.7,2
					C115.7,18.1,115.4,19.2,114,19.2L114,19.2z M102.5,25.4c-0.2-0.1-0.4-0.1-0.6-0.2c-2.1-0.7-5.6-2.5-5.6-7.6
					c0-0.6,0.1-2.5,1.7-2.5c1.5,0,1.8,1.6,1.8,2.5C99.7,20.3,100.7,23.1,102.5,25.4L102.5,25.4z"/>
			</g>
			<g>
				<path class="st1" d="M142.1,39.4c-9.2,0-14-6.6-14-13.1v-2.5c0-0.6,0.4-1,1-1h8.8c0.6,0,1,0.4,1,1v2.5c0,1.7,0.8,3.5,3.1,3.5
					c2.3,0,3.1-1.8,3.1-3.5v-9.2c0-2-0.9-3-2.8-3c-1.8,0-2.7,1-2.7,3v1c0,0.6-0.4,1-1,1h-8.8c-0.6,0-1-0.4-1-1v-2.8
					c0-6.4,5.4-10.8,13.5-10.8c8.8,0,13.6,6.9,13.6,13.4v8.4C156,32.8,151.2,39.4,142.1,39.4z"/>
				<path class="st0" d="M142.4,5.5c8.8,0,12.6,7.1,12.6,12.4v8.4c0,6.4-4.8,12.1-12.9,12.1c-8.2,0-13-5.6-13-12.1v-2.5h8.8v2.5
					c0,2.5,1.5,4.5,4.1,4.5c2.6,0,4.1-2,4.1-4.5v-9.2c0-2.4-1.2-4-3.8-4s-3.7,1.6-3.7,4v1h-8.8v-2.8C129.9,9.5,134.9,5.5,142.4,5.5
					 M142.4,3.5c-8.6,0-14.5,4.8-14.5,11.8v2.8c0,1.1,0.9,2,2,2h8.8c1.1,0,2-0.9,2-2v-1c0-1.8,0.8-2,1.7-2c0.9,0,1.8,0.2,1.8,2v9.2
					c0,0.9-0.3,2.5-2.1,2.5c-1.9,0-2.1-1.6-2.1-2.5v-2.5c0-1.1-0.9-2-2-2h-8.8c-1.1,0-2,0.9-2,2v2.5c0,7,5.1,14.1,15,14.1
					c9.8,0,14.9-7.1,14.9-14.1V18C157,11,151.9,3.5,142.4,3.5L142.4,3.5z"/>
			</g>
			<g>
				<path class="st1" d="M190.9,38.8c-0.6,0-1-0.4-1-1v-9.5c0-1.7-0.7-3.5-2.7-3.5c-2.6,0-2.8,2.7-2.8,3.5v5.3c0,0.6-0.4,1-1,1h-8.6
					c-0.6,0-1-0.4-1-1v-5.3c0-0.8-0.2-3.5-2.8-3.5c-2,0-2.7,1.8-2.7,3.5v9.5c0,0.6-0.4,1-1,1h-8.8c-0.6,0-1-0.4-1-1V21.9
					c0-12.4,5.8-17.4,19.9-17.4h10.9c0.6,0,1,0.4,1,1v7c0,0.6-0.4,1-1,1H175c-3.1,0-4.9,0.9-5.9,1.8c0.2,0,0.4,0,0.6-0.1
					c0,0,0,0,0,0c4.2,0,7.2,1.6,9.3,4.9c2.1-3.3,5.1-5,9.3-5c8,0,12.2,6.6,12.2,13.1v9.5c0,0.6-0.4,1-1,1H190.9z"/>
				<path class="st0" d="M188.4,5.5v7H175c-6.2,0-7.7,3.2-8,4.6c0.8-0.4,1.7-0.8,2.8-0.8c4.6,0,7.4,2,9.3,6.1c1.9-4,4.7-6.1,9.3-6.1
					c7.1,0,11.2,5.7,11.2,12.1v9.5h-8.8v-9.5c0-2.6-1.3-4.5-3.7-4.5c-2.4,0-3.8,2-3.8,4.5v5.3h-8.6v-5.3c0-2.6-1.3-4.5-3.8-4.5
					c-2.3,0-3.7,2-3.7,4.5v9.5h-8.8V21.9c0-11,4.5-16.4,18.9-16.4H188.4 M188.4,3.5h-10.9c-14.7,0-20.9,5.5-20.9,18.4v15.9
					c0,1.1,0.9,2,2,2h8.8c1.1,0,2-0.9,2-2v-9.5c0-0.6,0.1-2.5,1.7-2.5c1.5,0,1.8,1.6,1.8,2.5v5.3c0,1.1,0.9,2,2,2h8.6
					c1.1,0,2-0.9,2-2v-5.3c0-0.9,0.2-2.5,1.8-2.5c1.5,0,1.7,1.9,1.7,2.5v9.5c0,1.1,0.9,2,2,2h8.8c1.1,0,2-0.9,2-2v-9.5
					c0-7.9-5.1-13.6-12.4-14.1c0.7-0.3,1.1-1,1.1-1.8v-7C190.4,4.4,189.5,3.5,188.4,3.5L188.4,3.5z M173.2,14.6
					c0.6-0.1,1.2-0.1,1.9-0.1h10.7c-2.7,0.5-4.9,1.8-6.6,4C177.6,16.5,175.6,15.2,173.2,14.6L173.2,14.6z"/>
			</g>
			<g>
				<path class="st1" d="M215.4,39.4c-8.1,0-13.9-5.5-13.9-13.1c0-6,3.8-11,9.6-12.5l0.3-0.7c0.1-0.3,0.2-0.6,0.2-0.9
					c0-0.7-0.1-0.9-0.2-1c-0.1-0.1-0.2-0.3-0.4-0.5c-0.1-0.2-0.3-0.3-0.4-0.5c-0.4-0.4-0.7-0.9-1-1.5c-0.3-0.6-0.5-1.5-0.5-2.7V5.5
					c0-0.6,0.4-1,1-1h8.8c0.6,0,1,0.4,1,1v0.5c0,0.4,0.1,0.7,0.2,0.9c0.3,0.4,0.5,0.7,0.8,1c0.4,0.4,0.7,0.9,1,1.5
					c0.3,0.8,0.5,1.7,0.5,2.8c0,0.6-0.1,1.1-0.1,1.6c-0.1,0.3-0.1,0.6-0.2,0.8c4.6,2.2,7.3,6.5,7.3,11.6
					C229.4,33.9,223.5,39.4,215.4,39.4z M215.4,22.8c-2.8,0-3.1,2.4-3.1,3.5c0,1.1,0.3,3.5,3.1,3.5c2.7,0,3.1-2.2,3.1-3.5
					C218.6,25.3,218.3,22.8,215.4,22.8z"/>
				<path class="st0" d="M218.8,5.5v0.5c0,0.7,0.1,1.2,0.4,1.5c0.2,0.3,0.5,0.7,0.9,1c0.3,0.3,0.6,0.8,0.9,1.3
					c0.2,0.5,0.4,1.3,0.4,2.3c0,0.5,0,1-0.1,1.5c-0.1,0.5-0.2,1-0.3,1.5c4.7,1.9,7.5,6.1,7.5,11.1c0,7.6-5.9,12.1-13,12.1
					c-7.2,0-12.9-4.9-12.9-12.1c0-5.8,3.8-10.4,9.3-11.6l0.5-1.1c0.1-0.4,0.2-0.8,0.2-1.3c0-0.7-0.1-1.2-0.4-1.6
					c-0.3-0.3-0.6-0.7-0.9-1c-0.3-0.3-0.6-0.7-0.9-1.2c-0.3-0.5-0.4-1.3-0.4-2.3V5.5H218.8 M215.4,30.8c2.8,0,4.1-1.9,4.1-4.5
					c0-2.6-1.4-4.5-4.1-4.5c-2.7,0-4.1,1.9-4.1,4.5C211.3,28.9,212.7,30.8,215.4,30.8 M218.8,3.5H210c-1.1,0-2,0.9-2,2v0.5
					c0,1.4,0.2,2.4,0.6,3.2c0.3,0.6,0.7,1.2,1.2,1.7c0.1,0.1,0.2,0.3,0.3,0.4c0.1,0.1,0.2,0.3,0.3,0.4c0,0.1,0,0.2,0,0.4
					c0,0.2,0,0.4-0.1,0.6l-0.1,0.2c-5.9,1.8-9.8,7-9.8,13.3c0,8,6.4,14.1,14.9,14.1c8.7,0,15-5.9,15-14.1c0-5.3-2.7-9.7-7.2-12.2
					c0,0,0,0,0,0c0-0.1,0-0.1,0-0.2c0.1-0.5,0.1-1.1,0.1-1.7c0-1.3-0.2-2.3-0.6-3.2c0,0,0-0.1-0.1-0.1c-0.4-0.7-0.7-1.2-1.1-1.6
					c0,0-0.1-0.1-0.1-0.1c-0.2-0.2-0.5-0.5-0.6-0.8c0,0,0,0,0,0c0-0.1,0-0.2,0-0.3V5.5C220.8,4.4,219.9,3.5,218.8,3.5L218.8,3.5z
					 M215.4,28.8c-1.4,0-2.1-0.8-2.1-2.5c0-1.6,0.7-2.5,2.1-2.5c1.4,0,2.1,0.8,2.1,2.5C217.6,28.8,216,28.8,215.4,28.8L215.4,28.8z"
					/>
			</g>
			<g>
				<path class="st1" d="M263.3,38.8c-0.6,0-1-0.4-1-1V17.6c0-0.6-0.1-3.5-2.7-3.5c-2.6,0-2.8,2.9-2.8,3.5v13.2c0,0.6-0.4,1-1,1
					h-8.6c-0.6,0-1-0.4-1-1V17.6c0-0.8-0.2-3.5-2.8-3.5c-2.5,0-2.7,2.9-2.7,3.5v20.2c0,0.6-0.4,1-1,1H231c-0.6,0-1-0.4-1-1V17.6
					c0-7.6,5.1-13.1,12.2-13.1c4.2,0,7.2,1.6,9.3,4.9c2.1-3.3,5.1-4.9,9.3-4.9c7.1,0,12.2,5.5,12.2,13.1v20.2c0,0.6-0.4,1-1,1H263.3
					z"/>
				<path class="st0" d="M260.8,5.5c7,0,11.2,5.5,11.2,12.1v20.2h-8.8V17.6c0-2.3-1.1-4.5-3.7-4.5c-2.6,0-3.8,2.2-3.8,4.5v13.2h-8.6
					V17.6c0-2.4-1.1-4.5-3.8-4.5c-2.6,0-3.7,2.2-3.7,4.5v20.2H231V17.6c0-6.8,4.4-12.1,11.2-12.1c4.5,0,7.4,2,9.3,6.1
					C253.4,7.5,256.4,5.5,260.8,5.5 M260.8,3.5c-3.9,0-7.1,1.4-9.3,4.2c-2.2-2.8-5.3-4.2-9.3-4.2c-7.7,0-13.2,5.9-13.2,14.1v20.2
					c0,1.1,0.9,2,2,2h8.8c1.1,0,2-0.9,2-2V17.6c0-0.8,0.2-2.5,1.7-2.5c1.5,0,1.8,1.4,1.8,2.5v13.2c0,1.1,0.9,2,2,2h8.6
					c1.1,0,2-0.9,2-2V17.6c0-0.8,0.2-2.5,1.8-2.5c1.5,0,1.7,1.8,1.7,2.5v20.2c0,1.1,0.9,2,2,2h8.8c1.1,0,2-0.9,2-2V17.6
					C274.1,9.4,268.5,3.5,260.8,3.5L260.8,3.5z"/>
			</g>
			<g>
				<path class="st1" d="M308.8,38.8c-0.6,0-1-0.4-1-1v-9.5c0-1.7-0.7-3.5-2.7-3.5c-2.6,0-2.8,2.7-2.8,3.5v5.3c0,0.6-0.4,1-1,1h-8.6
					c-0.6,0-1-0.4-1-1v-5.3c0-0.8-0.2-3.5-2.8-3.5c-2,0-2.7,1.8-2.7,3.5v9.5c0,0.6-0.4,1-1,1h-8.8c-0.6,0-1-0.4-1-1V21.9
					c0-12.4,5.8-17.4,19.9-17.4h10.9c0.6,0,1,0.4,1,1v7c0,0.6-0.4,1-1,1H293c-3.1,0-4.9,0.9-5.9,1.8c0.2,0,0.4,0,0.6-0.1
					c0,0,0,0,0,0c4.2,0,7.2,1.6,9.3,4.9c2.1-3.3,5.1-5,9.3-5c8,0,12.2,6.6,12.2,13.1v9.5c0,0.6-0.4,1-1,1H308.8z"/>
				<path class="st0" d="M306.4,5.5v7H293c-6.2,0-7.7,3.2-8,4.6c0.8-0.4,1.7-0.8,2.8-0.8c4.6,0,7.4,2,9.3,6.1c1.9-4,4.7-6.1,9.3-6.1
					c7.1,0,11.2,5.7,11.2,12.1v9.5h-8.8v-9.5c0-2.6-1.3-4.5-3.7-4.5c-2.4,0-3.8,2-3.8,4.5v5.3h-8.6v-5.3c0-2.6-1.3-4.5-3.8-4.5
					c-2.3,0-3.7,2-3.7,4.5v9.5h-8.8V21.9c0-11,4.5-16.4,18.9-16.4H306.4 M306.4,3.5h-10.9c-14.7,0-20.9,5.5-20.9,18.4v15.9
					c0,1.1,0.9,2,2,2h8.8c1.1,0,2-0.9,2-2v-9.5c0-0.6,0.1-2.5,1.7-2.5c1.5,0,1.8,1.6,1.8,2.5v5.3c0,1.1,0.9,2,2,2h8.6
					c1.1,0,2-0.9,2-2v-5.3c0-0.9,0.2-2.5,1.8-2.5c1.5,0,1.7,1.9,1.7,2.5v9.5c0,1.1,0.9,2,2,2h8.8c1.1,0,2-0.9,2-2v-9.5
					c0-7.9-5.1-13.6-12.4-14.1c0.7-0.3,1.1-1,1.1-1.8v-7C308.4,4.4,307.5,3.5,306.4,3.5L306.4,3.5z M291.1,14.6
					c0.6-0.1,1.2-0.1,1.9-0.1h10.7c-2.7,0.5-4.9,1.8-6.6,4C295.5,16.5,293.5,15.2,291.1,14.6L291.1,14.6z"/>
			</g>
			<g>
				<path class="st1" d="M341.7,39.4c-0.2,0-0.5-0.1-0.7-0.2c-2.6-2.2-5.7-2.4-5.7-2.4l-11.5,0c-0.6,0-1-0.4-1-1v-6.6
					c0-0.6,0.4-1,1-1h0.3c-2.1-1.8-4.6-5.1-4.6-10.5c0-6.5,4.2-13.1,12.2-13.1c4.1,0,7.2,1.6,9.3,5c2.1-3.3,5.1-5,9.3-5
					c8,0,12.2,6.6,12.2,13.1c0,5.8-4.7,12.1-13.4,12.1c-8.4,0-13.4-6.1-13.4-12.1c0-0.8-0.2-3.5-2.8-3.5c-2,0-2.7,1.8-2.7,3.5
					c0,5.7,4,7.8,6.4,8.5c7.6,2.3,11.1,6,11.2,6.2c0.4,0.4,0.3,1,0,1.4l-5.4,5.4C342.2,39.3,341.9,39.4,341.7,39.4z M349,14.1
					c-2,0-2.7,1.6-2.7,3c0,0.7,0.2,3.1,2.7,3.1c2.5,0,2.7-2.4,2.7-3.1C351.7,15.7,351,14.1,349,14.1z"/>
				<path class="st0" d="M350.3,5.5c7.1,0,11.2,5.7,11.2,12.1c0,5.5-4.6,11.1-12.4,11.1c-7.8,0-12.4-5.7-12.4-11.1
					c0-2.6-1.3-4.5-3.8-4.5c-2.3,0-3.7,2-3.7,4.5c0,6.4,4.6,8.7,7.1,9.5c7.5,2.2,10.8,5.9,10.8,5.9l-5.4,5.4
					c-2.9-2.5-6.3-2.7-6.3-2.7h-11.6v-6.6h3.8c0,0-7.1-2.5-7.1-11.5c0-6.4,4.1-12.1,11.2-12.1c4.6,0,7.4,2,9.3,6.1
					C342.9,7.6,345.7,5.5,350.3,5.5 M349,21.2c2.4,0,3.7-1.8,3.7-4.1c0-2.2-1.3-4-3.7-4c-2.4,0-3.7,1.8-3.7,4
					C345.3,19.4,346.6,21.2,349,21.2 M350.3,3.5c-4,0-7.1,1.4-9.3,4.2c-2.2-2.8-5.3-4.2-9.3-4.2c-7.7,0-13.2,5.9-13.2,14.1
					c0,4.9,1.8,8.1,3.8,10.2c-0.3,0.4-0.5,0.8-0.5,1.3v6.6c0,1.1,0.9,2,2,2h11.5c0.3,0,2.9,0.3,5.1,2.2c0.4,0.3,0.8,0.5,1.3,0.5
					c0.5,0,1-0.2,1.4-0.6l5.4-5.4c0.8-0.8,0.8-2,0.1-2.8c0-0.1-0.4-0.5-1.2-1.1c0.5,0.1,1.1,0.1,1.7,0.1c9.4,0,14.4-6.7,14.4-13.1
					C363.6,9.5,358,3.5,350.3,3.5L350.3,3.5z M349,19.2c-1.4,0-1.7-1.1-1.7-2.1c0-0.9,0.3-2,1.7-2c1.4,0,1.7,1.1,1.7,2
					C350.7,18.1,350.4,19.2,349,19.2L349,19.2z M337.5,25.4c-0.2-0.1-0.4-0.1-0.6-0.2c-2.1-0.7-5.6-2.5-5.6-7.6
					c0-0.6,0.1-2.5,1.7-2.5c1.5,0,1.8,1.6,1.8,2.5C334.7,20.3,335.7,23.1,337.5,25.4L337.5,25.4z"/>
			</g>
			<g>
				<path class="st1" d="M381.5,38.8c-0.6,0-1-0.4-1-1V17.6c0-1-0.3-3.5-3.1-3.5c-2.8,0-3.1,2.4-3.1,3.5v20.2c0,0.6-0.4,1-1,1h-8.8
					c-0.6,0-1-0.4-1-1V17.6c0-7.6,5.9-13.1,13.9-13.1c8.1,0,14,5.5,14,13.1v20.2c0,0.6-0.4,1-1,1H381.5z"/>
				<path class="st0" d="M377.3,5.5c7.2,0,13,4.7,13,12.1v20.2h-8.8V17.6c0-2.6-1.4-4.5-4.1-4.5c-2.7,0-4.1,1.9-4.1,4.5v20.2h-8.8
					V17.6C364.4,10.1,370.3,5.5,377.3,5.5 M377.3,3.5c-8.6,0-14.9,5.9-14.9,14.1v20.2c0,1.1,0.9,2,2,2h8.8c1.1,0,2-0.9,2-2V17.6
					c0-1.6,0.7-2.5,2.1-2.5c1.4,0,2.1,0.8,2.1,2.5v20.2c0,1.1,0.9,2,2,2h8.8c1.1,0,2-0.9,2-2V17.6C392.3,9.4,386,3.5,377.3,3.5
					L377.3,3.5z"/>
			</g>
		</g>
	</g>
</g>
</svg>
