<?xml version="1.0" encoding="utf-8"?>
<!-- Generator: Adobe Illustrator 20.1.0, SVG Export Plug-In . SVG Version: 6.00 Build 0)  -->
<svg version="1.1" id="Layer_1" xmlns="http://www.w3.org/2000/svg" xmlns:xlink="http://www.w3.org/1999/xlink" x="0px" y="0px"
	 viewBox="0 0 368.8 368.6" style="enable-background:new 0 0 368.8 368.6;" xml:space="preserve">
<style type="text/css">
	.st0{fill:#FFFFFF;}
</style>
<path class="st0" d="M367.7,204.8c0-0.4,0.1-0.8,0.1-1.2c0.1-0.9,0.2-1.7,0.2-2.6c0.1-0.6,0.1-1.1,0.1-1.7c0.1-0.8,0.1-1.5,0.2-2.3
	c0-0.7,0.1-1.3,0.1-2s0.1-1.4,0.1-2.1c0-0.8,0.1-1.6,0.1-2.5c0-0.6,0-1.1,0.1-1.7c0-1.3,0-2.6,0-3.8c0-0.1,0-0.2,0-0.4v-1.9
	c0-0.1,0-0.3,0-0.4c0-1.3,0-2.6-0.1-3.9c0-0.6,0-1.2-0.1-1.8c0-0.8-0.1-1.7-0.1-2.5c0-0.7-0.1-1.5-0.1-2.2s-0.1-1.4-0.1-2
	c-0.1-0.8-0.1-1.6-0.2-2.4c-0.1-0.6-0.1-1.2-0.2-1.7c-0.1-0.9-0.2-1.7-0.3-2.6c-0.1-0.5-0.1-1-0.2-1.5c-0.1-0.9-0.2-1.9-0.4-2.8
	c-0.1-0.4-0.1-0.8-0.2-1.2c-0.1-1-0.3-2-0.5-3c0-0.3-0.1-0.5-0.1-0.8c-0.4-2.4-0.9-4.9-1.4-7.3c-0.5-2.6-1.2-5.1-1.8-7.7
	c0-0.2-0.1-0.3-0.1-0.5c-0.3-1.1-0.6-2.2-0.9-3.4c-0.1-0.2-0.1-0.5-0.2-0.7c-0.3-1.1-0.7-2.2-1-3.4c-0.1-0.2-0.1-0.4-0.2-0.6
	c-0.4-1.2-0.7-2.3-1.1-3.5c0-0.1-0.1-0.2-0.1-0.4c-1.7-5.1-3.7-10.1-5.8-15l0,0c-5-11.3-10.7-21.7-17.2-31.4
	c-6.6-9.7-13.9-18.7-22.1-26.8c-8.1-8.1-17.1-15.4-27-21.9c-2.8-1.8-5.6-3.6-8.5-5.2c-2.6-1.6-5.3-3.1-7.9-4.5
	c-9-4.8-18.5-8.8-28.5-12.1l-1.8-0.6c-10.3-3.4-20.9-5.8-31.6-7.2c-0.3,0-0.6-0.1-0.8-0.1c-1.1-0.1-2.1-0.3-3.2-0.4l0,0
	C198.3,0.4,191.5,0,184.7,0h-2.1c-12.5,0-24.7,1.3-36.7,3.9c-11.9,2.5-23.5,6.3-34.8,11.3c-11.3,4.9-21.8,10.7-31.5,17.4
	S60.9,46.8,52.7,55.1S37.3,72.5,30.8,82.4c-2.9,4.4-5.5,8.9-8,13.6c-0.2,0.4-0.4,0.8-0.6,1.2c-0.2,0.3-0.3,0.6-0.5,0.9
	c-4.8,9.1-8.9,18.7-12.3,28.7c-0.1,0.2-0.1,0.4-0.2,0.7c-0.4,1.3-0.8,2.6-1.2,3.8v0.1c-0.6,2-1.2,4-1.8,6v0.1
	c-1,3.7-1.9,7.5-2.6,11.3C1.2,160.7,0,172.7,0,185.1v1c0,12.3,1.3,24.5,3.8,36.4S10,246,15,257.3c4.9,11.2,10.6,21.5,17.2,31.2
	s14.1,18.7,22.3,26.9c8.2,8.2,17.3,15.5,27.1,22c0.5,0.3,1,0.7,1.5,1c0.3,0.2,0.6,0.4,0.9,0.6c0.8,0.5,1.5,1,2.3,1.5
	c0.2,0.1,0.4,0.2,0.6,0.4l0,0c8.2,5,16.9,9.5,26.2,13.4c11.4,4.8,23,8.5,34.8,10.9c11.9,2.4,24,3.7,36.4,3.7h1.9
	c12.5,0,24.7-1.3,36.7-3.9c11.9-2.5,23.5-6.3,34.9-11.3c11.4-5,22-10.8,31.6-17.4c9.7-6.7,18.7-14.2,26.9-22.5
	c8.2-8.3,15.5-17.4,21.9-27.3c6.4-9.8,12-20.4,16.6-31.8c1.3-3.1,2.5-6.3,3.6-9.5l0,0c0.2-0.4,0.3-0.9,0.4-1.3
	c1.5-4.4,2.8-8.7,4-13.2c0-0.1,0.1-0.2,0.1-0.3c0.3-1.1,0.6-2.2,0.8-3.3c0-0.2,0.1-0.4,0.1-0.6c0.3-1.1,0.5-2.1,0.7-3.2
	c0-0.2,0.1-0.4,0.1-0.7c0.2-0.7,0.3-1.4,0.5-2.1c0.1-0.4,0.1-0.7,0.2-1.1c0-0.2,0.1-0.4,0.1-0.5
	C366.5,214.1,367.2,209.4,367.7,204.8z M353.4,189.5c0,1-0.1,2-0.1,3c0,0.3,0,0.7-0.1,1c-0.1,1-0.1,2-0.2,3c0,0.3,0,0.6-0.1,0.9
	c-0.1,1.1-0.2,2.3-0.3,3.4c0,0.1,0,0.3,0,0.4c-0.5,5.4-1.3,10.8-2.4,16c-0.3,1.3-0.5,2.5-0.8,3.8c0,0.1,0,0.2-0.1,0.3
	c-0.1,0.3-0.1,0.6-0.2,0.9l-18.5-34.7l-0.3-0.5c-0.1-0.2-0.2-0.4-0.3-0.6c-0.2-0.4-0.3-0.7-0.3-1.1c-0.2-0.7-0.2-1.5-0.1-2.3
	s0.3-1.6,0.8-2.5l0,0l17.9-38c0.1,0.5,0.3,1.1,0.4,1.6c0.2,0.8,0.4,1.6,0.6,2.4c0.2,0.8,0.4,1.6,0.5,2.3c0.2,0.9,0.4,1.8,0.6,2.7
	c0.4,2,0.8,4,1.1,6c0,0.1,0,0.2,0.1,0.4c0.2,1.2,0.4,2.3,0.5,3.5c0,0.3,0.1,0.5,0.1,0.8c0.1,1,0.3,2.1,0.4,3.1c0,0.3,0.1,0.7,0.1,1
	c0.1,1,0.2,2,0.3,2.9c0,0.4,0.1,0.8,0.1,1.1c0.1,1,0.1,1.9,0.2,2.9c0,0.4,0,0.8,0.1,1.2c0,1,0.1,2,0.1,3c0,0.4,0,0.7,0,1.1
	c0,1.3,0.1,2.7,0.1,4v1.9c0,1.3,0,2.6,0,4C353.4,188.8,353.4,189.1,353.4,189.5z M323.8,88.7c6,9,11.3,18.6,15.9,28.9l0,0
	c0.6,1.3,1.1,2.6,1.6,3.8l-24.7,52.4l0,0c-0.4,0.9-0.8,1.9-1.1,2.8l-51.6-0.5c-0.5-1.3-1.2-2.6-1.9-3.9l-0.5-0.8l-42.8-56.1l0,0
	c-0.9-1.2-1.8-2.2-2.8-3.1l16.6-50c0.2,0,0.5,0,0.7,0c1-0.1,2-0.2,3-0.4l0,0l54.4-9.4c4.6,3.7,9,7.6,13.2,11.8
	C311,71.6,317.8,79.8,323.8,88.7z M206.3,244.2L206.3,244.2c-0.5,0.7-1,1.1-1.4,1.4c-0.3,0.2-0.8,0.3-1.3,0.3c-0.4,0-0.7,0-0.9-0.1
	c-0.2,0-0.4-0.1-0.5-0.1l-0.8-0.3L135,224.2l-0.7-0.2c-0.5-0.1-0.8-0.4-1.1-0.8c-0.5-0.7-0.8-1.7-0.9-2.8l-0.9-70.9
	c0-1.3,0.2-2.2,0.6-2.8c0.3-0.5,1.1-0.9,2.1-1.3l67.2-22l0.7-0.3c0.2-0.1,0.4-0.1,0.6-0.2c0.3-0.1,0.6-0.1,0.9-0.1l0,0
	c0.5,0,0.9,0.1,1.2,0.3c0.5,0.3,1,0.7,1.5,1.4l0,0l42.5,55.8c0.4,0.7,0.6,1.3,0.8,1.9c0.1,0.4,0.2,0.7,0.2,0.9
	c0,0.4-0.1,0.9-0.2,1.4c-0.2,0.7-0.5,1.3-0.9,2.1L206.3,244.2z M70.4,275.1L70.4,275.1l9,41.6c-2.7-2.2-5.4-4.4-8-6.8
	c-7.5-6.8-14.4-14.4-20.6-22.5l-1.2-1.5c-5.9-7.7-10.9-15.6-15.3-23.9c-1.5-2.9-2.9-5.8-4.3-8.7l35.8,16.4l0.6,0.2
	c0.1,0.1,0.3,0.2,0.6,0.3c0.4,0.2,0.7,0.4,0.9,0.6c0.6,0.5,1.1,1.1,1.5,1.8C69.9,273.3,70.2,274.1,70.4,275.1z M75.3,257.3
	c-0.1-0.1-0.2-0.1-0.3-0.2c-0.9-0.6-1.9-1.1-3.1-1.5l-49.7-22.7c-1.4-4.5-2.5-9-3.5-13.5c-2.3-10.8-3.4-21.9-3.4-33.3v-1
	c0-11.4,1.1-22.5,3.2-33.3c0.5-2.5,1-4.9,1.6-7.4l50.3-28.6l0,0c0.5-0.3,1-0.6,1.5-0.9l44.3,31.1c-0.2,1.2-0.2,2.4-0.2,3.6l0.9,70.9
	c0,1.7,0.2,3.3,0.6,4.9L75.3,257.3z M28.3,120c2.4-5.8,5.1-11.3,7.9-16.6c2.8-5.2,5.9-10.2,9.2-15c7.5-10.9,16.3-20.9,26.2-29.9
	l-4.8,38.1v0.6c0,0.2,0,0.4-0.1,0.6s-0.2,0.6-0.4,1.1c-0.3,0.8-0.7,1.4-1.2,2s-1.2,1.1-2.1,1.6l0,0l-35.9,20.4
	C27.5,121.9,27.9,121,28.3,120z M201.4,16.2c0.8,0.1,1.7,0.2,2.5,0.3c0.6,0.1,1.3,0.1,1.9,0.2c4.1,0.5,8.2,1.2,12.2,2
	c5.4,1.1,10.7,2.5,15.9,4.1c0.1,0,0.3,0.1,0.4,0.1c5.2,1.6,10.3,3.5,15.4,5.7c6.4,2.7,12.5,5.6,18.3,8.9c1.4,0.8,2.8,1.6,4.1,2.4
	l-38.7,6.7l-0.6,0.2c-0.2,0-0.4,0.1-0.7,0.1s-0.7,0-1.1,0l0,0c-0.8-0.1-1.6-0.3-2.2-0.6c-0.7-0.3-1.5-0.9-2.2-1.5l-30.5-28.9
	C197.9,15.9,199.6,16,201.4,16.2z M117.2,29.2c10.3-4.5,21-8,31.9-10.3c8-1.7,16.2-2.8,24.6-3.3L216,55.8c0.6,0.5,1.1,1,1.7,1.5
	L201,107.7c-0.4,0-0.7,0.1-1.1,0.1c-1.1,0.2-2.2,0.5-3.3,0.9l-67.2,22c-1.8,0.6-3.4,1.3-4.8,2.2l-43.3-30.4c0.1-0.4,0.2-0.8,0.3-1.2
	c0.2-1,0.4-2,0.5-3l0,0l6.7-53.6C97.6,38.8,107.1,33.6,117.2,29.2z M119.1,340c-7.5-3.1-14.6-6.7-21.3-10.6L85.4,272l0,0
	c-0.2-0.9-0.4-1.7-0.7-2.5l42.3-31.9c1.2,0.6,2.5,1.1,3.9,1.4l65.3,20.9c1.3,0.5,2.5,0.9,3.7,1.1h0.1l15,50.8
	c-0.1,0.1-0.3,0.2-0.5,0.3l0,0c-0.8,0.7-1.6,1.4-2.4,2.3l-38.8,38.7c-7.6-0.5-15.1-1.5-22.4-3C140.1,347.7,129.5,344.4,119.1,340z
	 M261.9,334.1c-8.7,4.5-17.8,8.3-27.3,11.2l-1.8,0.6c-9.1,2.8-18.3,4.7-27.7,5.9c-3.2,0.4-6.4,0.7-9.7,0.9l27.9-27.7l0.4-0.4
	c0.1-0.1,0.3-0.3,0.5-0.5l0,0c0.3-0.2,0.6-0.4,0.9-0.6c0.7-0.4,1.4-0.7,2.2-0.8c0.8-0.1,1.7-0.1,2.7,0l0,0l41.5,6.1
	C268.3,330.6,265.1,332.4,261.9,334.1z M325.4,278c-5.9,9-12.5,17.3-20,24.9c-4.6,4.7-9.5,9.1-14.6,13.2l-58.6-8.6l0,0
	c-0.8-0.1-1.6-0.2-2.4-0.2L215,257.1c1.3-1.1,2.5-2.3,3.6-3.8l0,0l42.8-57.9l0.5-0.7c0.6-1,1.1-2.1,1.6-3.2l52.4,0.5l0,0
	c0.4,1.1,0.9,2.1,1.6,3.1L343,243c-0.7,1.9-1.4,3.8-2.2,5.6C336.4,259.2,331.3,268.9,325.4,278z"/>
</svg>
