<?xml version="1.0" encoding="utf-8"?>
<!-- Generator: Adobe Illustrator 22.0.1, SVG Export Plug-In . SVG Version: 6.00 Build 0)  -->
<svg version="1.1" id="Layer_1" xmlns="http://www.w3.org/2000/svg" xmlns:xlink="http://www.w3.org/1999/xlink" x="0px" y="0px"
	 viewBox="0 0 74.7 29.8" style="enable-background:new 0 0 74.7 29.8;" xml:space="preserve">
<style type="text/css">
	.st0{fill:#681410;}
	.st1{fill:#FFFFFF;}
	.st2{fill:#0E4121;}
	.st3{fill:#0E304E;}
	.st4{fill:#0C304E;}
	.st5{fill:#351855;}
</style>
<g>
	<g>
		<path class="st5" d="M13.8,28.4c-7.2,0-11.7-3.9-11.7-10.3V5.3c0-0.6,0.4-1,1-1h6.6c0.6,0,1,0.4,1,1v12.5c0,2.5,2.1,2.7,3.1,2.7
			c1.9,0,3-1,3-2.7V5.3c0-0.6,0.4-1,1-1h6.6c0.6,0,1,0.4,1,1v12.7C25.5,24.5,21.1,28.4,13.8,28.4z"/>
		<path class="st5" d="M24.5,5.3v12.7c0,6.6-4.8,9.3-10.7,9.3c-6.1,0-10.7-3-10.7-9.3V5.3h6.6v12.5c0,2.4,1.7,3.7,4.1,3.7
			c2.3,0,4-1.3,4-3.7V5.3H24.5 M24.5,3.3h-6.6c-1.1,0-2,0.9-2,2v12.5c0,1.1-0.7,1.7-2,1.7c-2.1,0-2.1-1.3-2.1-1.7V5.3
			c0-1.1-0.9-2-2-2H3.1c-1.1,0-2,0.9-2,2v12.7c0,7,4.9,11.3,12.7,11.3c7.8,0,12.7-4.3,12.7-11.3V5.3C26.5,4.2,25.6,3.3,24.5,3.3
			L24.5,3.3z"/>
		<path class="st5" d="M28.6,28c-0.6,0-1-0.4-1-1V5.3c0-0.6,0.4-1,1-1h16.4c0.6,0,1,0.4,1,1V11c0,0.6-0.4,1-1,1h-8.9v0.1h8.6
			c0.6,0,1,0.4,1,1v5.7c0,0.6-0.4,1-1,1h-8.6V27c0,0.6-0.4,1-1,1H28.6z"/>
		<path class="st5" d="M45.1,5.3V11h-9.9v2.1h9.6v5.7h-9.6V27h-6.5V5.3H45.1 M45.1,3.3H28.6c-1.1,0-2,0.9-2,2V27c0,1.1,0.9,2,2,2
			h6.5c1.1,0,2-0.9,2-2v-6.1h7.6c1.1,0,2-0.9,2-2v-5.7c0-0.3-0.1-0.6-0.2-0.9c0.3-0.3,0.4-0.8,0.4-1.2V5.3
			C47.1,4.2,46.2,3.3,45.1,3.3L45.1,3.3z"/>
		<path class="st5" d="M59.2,28.4c-7.4,0-12.8-5.1-12.8-12.2S51.8,4,59.2,4s12.8,5.1,12.8,12.2S66.7,28.4,59.2,28.4z M59.2,11.8
			c-2.5,0-4.2,1.8-4.2,4.4c0,0.6,0.1,1.2,0.3,1.7c0.5,1.6,2.1,2.7,3.9,2.7c2.5,0,4.2-1.8,4.2-4.4c0-0.6-0.1-1.2-0.3-1.8
			C62.4,12.7,61,11.8,59.2,11.8z"/>
		<path class="st5" d="M59.2,5c6.7,0,11.8,4.5,11.8,11.2c0,6.8-5.3,11.2-11.8,11.2c-6.6,0-11.8-4.5-11.8-11.2
			C47.4,9.3,52.7,5,59.2,5 M59.2,21.6c3.1,0,5.2-2.4,5.2-5.4c0-0.7-0.1-1.5-0.4-2.1c-0.8-2.1-2.6-3.3-4.8-3.3
			c-3.1,0-5.2,2.4-5.2,5.4c0,0.7,0.1,1.5,0.4,2.1C55.1,20.4,57.1,21.6,59.2,21.6 M59.2,3c-8,0-13.8,5.5-13.8,13.2
			s5.8,13.2,13.8,13.2s13.8-5.5,13.8-13.2S67.2,3,59.2,3L59.2,3z M59.2,19.6c-1.1,0-2.5-0.6-2.9-1.9c0,0,0-0.1,0-0.1
			c-0.2-0.4-0.2-0.9-0.2-1.4c0-1.7,1-3.4,3.2-3.4c1.4,0,2.4,0.7,3,2c0.2,0.5,0.2,1,0.2,1.4C62.4,17.9,61.4,19.6,59.2,19.6L59.2,19.6
			z"/>
	</g>
	<g>
		<g>
			<g>
				<path class="st1" d="M13.8,26.4c-7.2,0-11.7-3.9-11.7-10.3V3.3c0-0.6,0.4-1,1-1h6.6c0.6,0,1,0.4,1,1v12.5c0,2.5,2.1,2.7,3.1,2.7
					c1.9,0,3-1,3-2.7V3.3c0-0.6,0.4-1,1-1h6.6c0.6,0,1,0.4,1,1v12.7C25.5,22.5,21.1,26.4,13.8,26.4z"/>
				<path class="st5" d="M24.5,3.3v12.7c0,6.6-4.8,9.3-10.7,9.3c-6.1,0-10.7-3-10.7-9.3V3.3h6.6v12.5c0,2.4,1.7,3.7,4.1,3.7
					c2.3,0,4-1.3,4-3.7V3.3H24.5 M24.5,1.3h-6.6c-1.1,0-2,0.9-2,2v12.5c0,1.1-0.7,1.7-2,1.7c-2.1,0-2.1-1.3-2.1-1.7V3.3
					c0-1.1-0.9-2-2-2H3.1c-1.1,0-2,0.9-2,2v12.7c0,7,4.9,11.3,12.7,11.3c7.8,0,12.7-4.3,12.7-11.3V3.3C26.5,2.2,25.6,1.3,24.5,1.3
					L24.5,1.3z"/>
			</g>
			<g>
				<path class="st1" d="M28.6,26c-0.6,0-1-0.4-1-1V3.3c0-0.6,0.4-1,1-1h16.4c0.6,0,1,0.4,1,1V9c0,0.6-0.4,1-1,1h-8.9v0.1h8.6
					c0.6,0,1,0.4,1,1v5.7c0,0.6-0.4,1-1,1h-8.6V25c0,0.6-0.4,1-1,1H28.6z"/>
				<path class="st5" d="M45.1,3.3V9h-9.9v2.1h9.6v5.7h-9.6V25h-6.5V3.3H45.1 M45.1,1.3H28.6c-1.1,0-2,0.9-2,2V25c0,1.1,0.9,2,2,2
					h6.5c1.1,0,2-0.9,2-2v-6.1h7.6c1.1,0,2-0.9,2-2v-5.7c0-0.3-0.1-0.6-0.2-0.9c0.3-0.3,0.4-0.8,0.4-1.2V3.3
					C47.1,2.2,46.2,1.3,45.1,1.3L45.1,1.3z"/>
			</g>
			<g>
				<path class="st1" d="M59.2,26.4c-7.4,0-12.8-5.1-12.8-12.2S51.8,2,59.2,2s12.8,5.1,12.8,12.2S66.7,26.4,59.2,26.4z M59.2,9.8
					c-2.5,0-4.2,1.8-4.2,4.4c0,0.6,0.1,1.2,0.3,1.7c0.5,1.6,2.1,2.7,3.9,2.7c2.5,0,4.2-1.8,4.2-4.4c0-0.6-0.1-1.2-0.3-1.8
					C62.4,10.7,61,9.8,59.2,9.8z"/>
				<path class="st5" d="M59.2,3c6.7,0,11.8,4.5,11.8,11.2c0,6.8-5.3,11.2-11.8,11.2c-6.6,0-11.8-4.5-11.8-11.2
					C47.4,7.3,52.7,3,59.2,3 M59.2,19.6c3.1,0,5.2-2.4,5.2-5.4c0-0.7-0.1-1.5-0.4-2.1c-0.8-2.1-2.6-3.3-4.8-3.3
					c-3.1,0-5.2,2.4-5.2,5.4c0,0.7,0.1,1.5,0.4,2.1C55.1,18.4,57.1,19.6,59.2,19.6 M59.2,1c-8,0-13.8,5.5-13.8,13.2
					s5.8,13.2,13.8,13.2s13.8-5.5,13.8-13.2S67.2,1,59.2,1L59.2,1z M59.2,17.6c-1.1,0-2.5-0.6-2.9-1.9c0,0,0-0.1,0-0.1
					c-0.2-0.4-0.2-0.9-0.2-1.4c0-1.7,1-3.4,3.2-3.4c1.4,0,2.4,0.7,3,2c0.2,0.5,0.2,1,0.2,1.4C62.4,15.9,61.4,17.6,59.2,17.6
					L59.2,17.6z"/>
			</g>
		</g>
	</g>
</g>
</svg>
