<?xml version="1.0" encoding="utf-8"?>
<!-- Generator: Adobe Illustrator 22.0.1, SVG Export Plug-In . SVG Version: 6.00 Build 0)  -->
<svg version="1.1" id="Layer_1" xmlns="http://www.w3.org/2000/svg" xmlns:xlink="http://www.w3.org/1999/xlink" x="0px" y="0px"
	 viewBox="0 0 30 34.1" style="enable-background:new 0 0 30 34.1;" xml:space="preserve">
<style type="text/css">
	.st0{fill:#0E304E;}
	.st1{fill:#23D083;}
</style>
<g>
	<g>
		<path class="st0" d="M4.7,32.5c-0.6,0-1-0.4-1-1v-6.3c0-0.3,0.2-0.6,0.4-0.8c1-0.7,1.9-1.4,2.8-2c0.9-0.6,1.7-1.2,2.5-1.8
			c1.4-1,2.6-1.9,3.6-2.7c1.1-0.8,1.8-1.4,2.3-1.8c0.6-0.6,1.4-1.3,1.7-1.9c0-0.2,0.1-0.4,0.1-0.6c0-0.9-1.5-1.1-2.1-1.1
			c-2.4,0-4.3,0.7-6.4,2.5c-0.2,0.2-0.4,0.2-0.6,0.2c0,0-0.1,0-0.1,0c-0.3,0-0.5-0.2-0.7-0.4L2.7,9.6c-0.3-0.4-0.3-0.9,0-1.3
			c2.8-3,7.3-4.8,12-4.8c6.2,0,12.4,3.2,12.4,10.2c0,4.1-2.8,7.2-6.2,9.8h5.5c0.6,0,1,0.4,1,1v7c0,0.6-0.4,1-1,1H4.7z"/>
		<path class="st0" d="M14.8,4.5c5.8,0,11.4,2.9,11.4,9.2c0,5-4.6,8.4-8.4,10.8h8.7v7H4.7v-6.3c2-1.4,3.8-2.7,5.2-3.7
			c1.4-1,2.6-1.9,3.6-2.7c1-0.8,1.8-1.4,2.4-1.9c0.7-0.6,1.6-1.5,2-2.4c0.1-0.3,0.1-0.6,0.1-1c0-1.6-1.8-2.1-3.1-2.1
			c-2.8,0-4.9,1-7,2.8L3.5,9C6.3,5.9,10.7,4.5,14.8,4.5 M14.8,2.5C9.7,2.5,5,4.4,2,7.6C1.4,8.4,1.3,9.5,2,10.2l4.4,5.4
			c0.3,0.4,0.8,0.7,1.4,0.7c0.1,0,0.1,0,0.2,0c0.5,0,0.9-0.2,1.3-0.5c1.9-1.6,3.6-2.3,5.7-2.3c0.5,0,0.9,0.1,1.1,0.2
			c0,0.1,0,0.1,0,0.1c-0.3,0.6-1.1,1.3-1.4,1.5c-0.5,0.4-1.2,1-2.2,1.8c-0.9,0.7-2,1.5-3.6,2.7C8,20.4,7.2,21,6.3,21.6
			c-0.9,0.6-1.8,1.3-2.8,2c-0.5,0.4-0.8,1-0.8,1.6v6.3c0,1.1,0.9,2,2,2h21.8c1.1,0,2-0.9,2-2v-7c0-1.1-0.9-2-2-2h-2.7
			c2.4-2.2,4.4-5.1,4.4-8.8C28.2,6,21.3,2.5,14.8,2.5L14.8,2.5z"/>
	</g>
	<g>
		<g>
			<g>
				<path class="st1" d="M4.7,30.5c-0.6,0-1-0.4-1-1v-6.3c0-0.3,0.2-0.6,0.4-0.8c1-0.7,1.9-1.4,2.8-2c0.9-0.6,1.7-1.2,2.5-1.8
					c1.4-1,2.6-1.9,3.6-2.7c1.1-0.8,1.8-1.4,2.3-1.8c0.6-0.6,1.4-1.3,1.7-1.9c0-0.2,0.1-0.4,0.1-0.6c0-0.9-1.5-1.1-2.1-1.1
					c-2.4,0-4.3,0.7-6.4,2.5c-0.2,0.2-0.4,0.2-0.6,0.2c0,0-0.1,0-0.1,0c-0.3,0-0.5-0.2-0.7-0.4L2.7,7.6c-0.3-0.4-0.3-0.9,0-1.3
					c2.8-3,7.3-4.8,12-4.8c6.2,0,12.4,3.2,12.4,10.2c0,4.1-2.8,7.2-6.2,9.8h5.5c0.6,0,1,0.4,1,1v7c0,0.6-0.4,1-1,1H4.7z"/>
				<path class="st0" d="M14.8,2.5c5.8,0,11.4,2.9,11.4,9.2c0,5-4.6,8.4-8.4,10.8h8.7v7H4.7v-6.3c2-1.4,3.8-2.7,5.2-3.7
					c1.4-1,2.6-1.9,3.6-2.7c1-0.8,1.8-1.4,2.4-1.9c0.7-0.6,1.6-1.5,2-2.4c0.1-0.3,0.1-0.6,0.1-1c0-1.6-1.8-2.1-3.1-2.1
					c-2.8,0-4.9,1-7,2.8L3.5,7C6.3,3.9,10.7,2.5,14.8,2.5 M14.8,0.5C9.7,0.5,5,2.4,2,5.6C1.4,6.4,1.3,7.5,2,8.2l4.4,5.4
					c0.3,0.4,0.8,0.7,1.4,0.7c0.1,0,0.1,0,0.2,0c0.5,0,0.9-0.2,1.3-0.5c1.9-1.6,3.6-2.3,5.7-2.3c0.5,0,0.9,0.1,1.1,0.2
					c0,0.1,0,0.1,0,0.1c-0.3,0.6-1.1,1.3-1.4,1.5c-0.5,0.4-1.2,1-2.2,1.8c-0.9,0.7-2,1.5-3.6,2.7C8,18.4,7.2,19,6.3,19.6
					c-0.9,0.6-1.8,1.3-2.8,2c-0.5,0.4-0.8,1-0.8,1.6v6.3c0,1.1,0.9,2,2,2h21.8c1.1,0,2-0.9,2-2v-7c0-1.1-0.9-2-2-2h-2.7
					c2.4-2.2,4.4-5.1,4.4-8.8C28.2,4,21.3,0.5,14.8,0.5L14.8,0.5z"/>
			</g>
		</g>
	</g>
</g>
</svg>
