<?xml version="1.0" encoding="utf-8"?>
<!-- Generator: Adobe Illustrator 20.1.0, SVG Export Plug-In . SVG Version: 6.00 Build 0)  -->
<svg version="1.1" id="Layer_1" xmlns="http://www.w3.org/2000/svg" xmlns:xlink="http://www.w3.org/1999/xlink" x="0px" y="0px"
	 viewBox="0 0 368.8 368.6" style="enable-background:new 0 0 368.8 368.6;" xml:space="preserve">
<style type="text/css">
	.st0{fill:#FFFFFF;}
</style>
<path class="st0" d="M368.8,226.5c-1.5,10-3.7,19.9-8.1,29.1c-16.2,33.7-42.6,52.2-80.4,52.9c-31.7,0.6-58.5-11.4-80.2-34.5
	c-0.8-0.8-1.3-1.8-2.1-2.9c-1.4,1.8-0.9,3.1-0.9,4.2c0,26.7,0,53.4,0,80.2c0,5.6-3.2,10-8.3,11.7c-5.2,1.8-10.7,0.2-14.2-4
	c-2.1-2.5-2.7-5.4-2.6-8.6c0-26.4,0-52.8,0-79.1c0-1.2,0.3-2.5-0.4-3.7c-1.6,0.5-2.3,1.9-3.2,2.9c-23.6,24.7-52.8,36.3-86.6,33.6
	c-34.2-2.8-58.9-21-73.1-52.3c-16.7-36.9-9-75.9,19.7-104.5C77.3,102.6,126.2,53.7,175,4.8c1.8-1.8,3.8-3.2,6.1-4.2
	c2.3,0,4.5,0,6.8,0c2.1,1.1,4.2,2.3,5.9,4c49.9,49.9,99.8,99.8,149.7,149.8c7.9,7.9,13.7,17.2,18.2,27.4c3.7,8.4,5.6,17.3,7,26.2
	C368.8,214.2,368.8,220.4,368.8,226.5z M279.1,283.1c19.4,0.7,34.5-7.1,44.4-16.7c26.6-25.7,27-69.1,0.9-95.4
	C278.8,125.3,233,79.7,187.4,34c-2.2-2.2-3.4-2.3-5.7-0.1C136.2,79.6,90.6,125.1,45,170.8c-16.5,16.6-22.8,36.8-18.4,59.7
	c4.7,24.5,18.6,42.3,42.7,49.5c28.1,8.5,53.6,1.5,75.5-17.8c18.2-16.1,26.7-36.9,27.3-61.1c0.2-7,5.8-12.2,12.7-12
	c6.9,0.1,12,5.2,12.3,12.1c0.2,3.7,0.3,7.5,0.8,11.2C203.6,254.2,239.7,283.9,279.1,283.1z"/>
</svg>
