<?xml version="1.0" encoding="utf-8"?>
<!-- Generator: Adobe Illustrator 20.1.0, SVG Export Plug-In . SVG Version: 6.00 Build 0)  -->
<svg version="1.1" id="Layer_1" xmlns="http://www.w3.org/2000/svg" xmlns:xlink="http://www.w3.org/1999/xlink" x="0px" y="0px"
	 viewBox="0 0 368.8 368.6" style="enable-background:new 0 0 368.8 368.6;" xml:space="preserve">
<style type="text/css">
	.st0{fill:#FFFFFF;}
</style>
<g>
	<path class="st0" d="M247.4,221.7c-5.5-5.5-13.8-6.7-20.5-3.5l-26.1-26.1c2.3-4.9,2.3-10.6,0-15.5l26.1-26.1
		c2.4,1.2,5.1,1.8,7.7,1.8c4.6,0,9.3-1.8,12.8-5.3c7.1-7.1,7.1-18.5,0-25.6c-7.1-7.1-18.5-7.1-25.6,0c-5.5,5.5-6.7,13.8-3.5,20.5
		L192.2,168c-4.9-2.3-10.6-2.3-15.5,0l-26.1-26.1c3.2-6.7,2-15-3.5-20.5c-7.1-7.1-18.5-7.1-25.6,0c-7.1,7.1-7.1,18.5,0,25.6
		c3.5,3.5,8.2,5.3,12.8,5.3c2.7,0,5.3-0.6,7.7-1.8l26.1,26.1c-2.3,4.9-2.3,10.6,0,15.5L142,218.2c-6.7-3.2-15-2-20.5,3.5
		c-7.1,7.1-7.1,18.5,0,25.6c3.5,3.5,8.2,5.3,12.8,5.3c4.6,0,9.3-1.8,12.8-5.3c5.5-5.5,6.7-13.8,3.5-20.5l26.1-26.1
		c2.4,1.2,5.1,1.8,7.7,1.8c2.7,0,5.3-0.6,7.7-1.8l26.1,26.1c-3.2,6.7-2,15,3.5,20.5c3.5,3.5,8.2,5.3,12.8,5.3s9.3-1.8,12.8-5.3
		C254.4,240.2,254.4,228.7,247.4,221.7z M230.4,129.9c1.1-1.1,2.6-1.7,4.2-1.7c1.6,0,3.1,0.6,4.2,1.7c2.3,2.3,2.3,6.1,0,8.4
		c-2.3,2.3-6.1,2.3-8.4,0c-1.1-1.1-1.7-2.6-1.7-4.2C228.6,132.6,229.2,131.1,230.4,129.9z M138.5,138.4c-2.3,2.3-6.1,2.3-8.4,0
		c-1.1-1.1-1.7-2.6-1.7-4.2c0-1.6,0.6-3.1,1.7-4.2s2.6-1.7,4.2-1.7c1.6,0,3.1,0.6,4.2,1.7C140.8,132.3,140.8,136,138.5,138.4z
		 M138.5,238.7c-2.3,2.3-6.1,2.3-8.4,0c-1.1-1.1-1.7-2.6-1.7-4.2c0-1.6,0.6-3.1,1.7-4.2c1.2-1.2,2.7-1.7,4.2-1.7
		c1.5,0,3,0.6,4.2,1.7C140.8,232.6,140.8,236.4,138.5,238.7z M188.6,188.5c-2.3,2.3-6.1,2.3-8.4,0c-1.1-1.1-1.7-2.6-1.7-4.2
		c0-1.6,0.6-3.1,1.7-4.2c1.1-1.1,2.6-1.7,4.2-1.7c1.6,0,3.1,0.6,4.2,1.7C190.9,182.4,190.9,186.2,188.6,188.5z M238.8,238.7
		c-2.3,2.3-6.1,2.3-8.4,0c-1.1-1.1-1.7-2.6-1.7-4.2c0-1.6,0.6-3.1,1.7-4.2c1.2-1.2,2.7-1.7,4.2-1.7c1.5,0,3.1,0.6,4.2,1.7
		C241.1,232.6,241.1,236.4,238.8,238.7z"/>
</g>
<g>
	<path class="st0" d="M184.4,368.6C82.8,368.6,0.1,285.9,0.1,184.3S82.8,0,184.4,0C286,0,368.7,82.7,368.7,184.3
		S286,368.6,184.4,368.6z M184.4,12c-95,0-172.3,77.3-172.3,172.3s77.3,172.3,172.3,172.3s172.3-77.3,172.3-172.3S279.4,12,184.4,12
		z"/>
</g>
<g>
	<path class="st0" d="M168.6,335.4c-10.6-1.1-21-3.3-31.1-6.6l3.7-11.4c9.3,3,18.9,5,28.6,6L168.6,335.4z M200.4,335.4l-1.2-11.9
		c9.7-1,19.3-3.1,28.6-6.1l3.7,11.4C221.4,332.1,210.9,334.3,200.4,335.4z M108.5,315.9c-9.2-5.3-17.8-11.6-25.7-18.7l8-8.9
		c7.3,6.5,15.2,12.3,23.7,17.2L108.5,315.9z M260.4,315.8l-6-10.4c8.4-4.9,16.4-10.7,23.6-17.2l8,8.9
		C278.2,304.3,269.6,310.6,260.4,315.8z M61.6,273.7c-6.2-8.6-11.6-17.8-15.9-27.5l11-4.9c4,8.9,8.9,17.4,14.7,25.3L61.6,273.7z
		 M307.3,273.6l-9.7-7.1c5.7-7.9,10.7-16.4,14.6-25.3l11,4.9C318.9,255.8,313.5,265,307.3,273.6z M35.8,216
		c-2.2-10.3-3.3-20.9-3.3-31.6l12,0c0,9.8,1,19.6,3.1,29.1L35.8,216z M333,215.9l-11.7-2.5c2-9.5,3-19.3,3-29.1V184h12v0.3
		C336.3,195,335.2,205.6,333,215.9z M47.5,155.4l-11.7-2.5c2.2-10.4,5.5-20.5,9.8-30.2l11,4.9C52.5,136.5,49.5,145.8,47.5,155.4z
		 M321.2,154.9c-2-9.5-5.1-18.9-9.1-27.8l10.9-4.9c4.3,9.7,7.7,19.8,9.9,30.2L321.2,154.9z M71.1,102.2l-9.7-7
		c6.2-8.6,13.4-16.5,21.2-23.6l8,8.9C83.4,87,76.8,94.4,71.1,102.2z M297.4,101.9c-5.8-7.9-12.4-15.2-19.6-21.7l8-8.9
		c7.9,7.1,15,15,21.3,23.5L297.4,101.9z M114.3,63.3l-6-10.4c9.2-5.3,18.9-9.7,29-13l3.7,11.4C131.7,54.3,122.7,58.3,114.3,63.3z
		 M254.1,63c-8.5-4.9-17.5-8.9-26.7-11.9l3.7-11.4c10.1,3.3,19.8,7.6,29,12.9L254.1,63z M169.6,45.2l-1.3-11.9
		c5.3-0.6,10.7-0.8,16.1-0.8c0,0,0,0,0,0c5.2,0,10.5,0.3,15.6,0.8l-1.2,11.9c-4.7-0.5-9.6-0.7-14.4-0.7c0,0,0,0,0,0
		C179.4,44.4,174.4,44.7,169.6,45.2z"/>
</g>
</svg>
