<?xml version="1.0" encoding="utf-8"?>
<!-- Generator: Adobe Illustrator 22.0.1, SVG Export Plug-In . SVG Version: 6.00 Build 0)  -->
<svg version="1.1" id="Layer_1" xmlns="http://www.w3.org/2000/svg" xmlns:xlink="http://www.w3.org/1999/xlink" x="0px" y="0px"
	 viewBox="0 0 50 50" style="enable-background:new 0 0 50 50;" xml:space="preserve">
<style type="text/css">
	.st0{fill:#787F88;}
	.st1{stroke:#000000;stroke-width:3;stroke-linecap:round;stroke-miterlimit:10;}
	.st2{fill:none;stroke:#000000;stroke-width:0.75;stroke-linecap:round;stroke-linejoin:round;stroke-miterlimit:10;}
	.st3{fill:#FFFFFF;}
	.st4{fill:none;}
</style>
<g>
	<g>
		<path class="st3" d="M43.5,22.2c-0.9-0.9-2.3-1.8-4-2.6c-1-0.5-2-0.9-3.1-1.3c0-1-0.6-2.3-2.9-3.6c-1.7-1-4.1-1.8-6.7-2.2
			c-2.6-0.4-5.1-0.5-7-0.1c-2.6,0.5-3.6,1.5-3.9,2.4c-1.2,0-2.3,0.1-3.3,0.2c-1.9,0.2-3.5,0.6-4.7,1.1c-1.5,0.7-2.3,1.6-2.5,2.8
			c-0.2,1.2,0.3,2.3,1.5,3.4c0.7,0.7,1.7,1.4,2.9,2c-0.1,0.2-0.2,0.5-0.3,0.8c-0.3,1.6,1.1,3,4.3,4.4c2.6,1.1,6,2.1,9.8,2.7
			c2.9,0.5,5.7,0.8,8.1,0.8c0.7,0,1.4,0,2-0.1c3.4-0.2,5.3-1.1,5.5-2.7v0c0-0.3,0-0.6,0-0.8c1.3-0.2,2.5-0.5,3.3-1
			c1.5-0.7,2.3-1.6,2.5-2.8C45.2,24.5,44.7,23.3,43.5,22.2z M20.2,14.8c0.7-0.1,1.6-0.2,2.5-0.2c1.2,0,2.4,0.1,3.7,0.3
			c2.3,0.4,4.4,1.1,5.9,1.9c0.1,0.1,0.3,0.2,0.4,0.2c1.1,0.7,1.3,1.2,1.3,1.3c0,0.1-0.4,0.6-2.1,0.9c-0.1,0-0.2,0-0.3,0.1
			c-1.6,0.2-3.7,0.2-5.9-0.2c-6.6-1.1-7.5-3.4-7.5-3.5c0-0.1,0.4-0.5,1.6-0.8C19.9,14.8,20,14.8,20.2,14.8z M32.8,30.5
			c-2.5,0.1-5.6-0.1-8.9-0.7s-6.3-1.4-8.6-2.3c-2.2-0.9-3.3-2-3.3-2c3.3,1.4,7.5,2.6,12,3.4c3.4,0.6,6.8,0.9,9.7,0.9
			c1,0,1.9,0,2.8-0.1C36.5,29.7,35.1,30.4,32.8,30.5z M37.5,27.1c-0.1,0-0.2,0-0.3,0c-1.7,0.2-3.6,0.2-5.7,0.1
			c-2.3-0.1-4.7-0.4-7.2-0.8c-2.5-0.4-4.8-1-7-1.6c-2-0.6-3.8-1.3-5.3-2c-0.1,0-0.2-0.1-0.3-0.1c-3.2-1.5-4.2-2.9-4.1-3.4
			c0.1-0.5,1.5-1.5,5-1.9c1-0.1,2.2-0.2,3.4-0.2c0.4,0.7,1.2,1.4,2.4,2.1c1.7,1,4.1,1.8,6.7,2.2c1.4,0.2,2.8,0.4,4.1,0.4
			c1.1,0,2-0.1,2.9-0.2c1.4-0.3,2.4-0.7,3-1.2c1.1,0.4,2.2,0.9,3.2,1.3c3.2,1.5,4.2,2.9,4.1,3.4C42.4,25.8,41,26.7,37.5,27.1z"/>
	</g>
	<g>
		<path class="st3" d="M35.6,23.3c-0.6,0.3-0.9,1.1-0.5,1.8c0.3,0.7,1.1,1.1,1.7,0.8c0.6-0.3,0.9-1.1,0.5-1.8S36.2,23,35.6,23.3z"/>
	</g>
	<g>
		<path class="st3" d="M25.2,22.7c-0.8-0.1-1.5,0.4-1.6,1.2c-0.1,0.8,0.4,1.5,1.2,1.6c0.8,0.1,1.5-0.4,1.6-1.2
			C26.4,23.5,25.9,22.8,25.2,22.7z"/>
	</g>
	<g>
		<path class="st3" d="M13.2,20.2c-0.5,0.6-0.6,1.4-0.1,1.8c0.5,0.4,1.3,0.4,1.8-0.2c0.5-0.6,0.6-1.4,0.1-1.8
			C14.5,19.5,13.7,19.6,13.2,20.2z"/>
	</g>
</g>
<path class="st3" d="M32.7,30.7C32.7,30.7,32.7,30.7,32.7,30.7c0,0-0.1,0-0.1,0C32.6,30.7,32.6,30.7,32.7,30.7z"/>
<path class="st3" d="M34.1,1.7C21.2-3.3,6.7,3.1,1.7,15.9c-5,12.9,1.4,27.4,14.2,32.4s27.4-1.4,32.4-14.2
	C53.3,21.2,46.9,6.7,34.1,1.7z M45.8,33.1c-4.5,11.4-17.4,17.1-28.8,12.7C5.5,41.3-0.2,28.4,4.2,16.9C8.7,5.5,21.6-0.2,33.1,4.2
	S50.2,21.6,45.8,33.1z"/>
<g>
	<path class="st3" d="M23.7,35.1c-0.4-0.1-0.8,0.1-0.9,0.5l-2.4,8c-0.1,0.4,0.1,0.8,0.5,0.9c0.2,0.1,0.3,0,0.5,0
		c0.2-0.1,0.3-0.2,0.4-0.4l2.4-8C24.3,35.6,24.1,35.2,23.7,35.1z"/>
	<path class="st3" d="M28.2,35.6c-0.4,0-0.7,0.4-0.6,0.8l0.8,8.3c0,0.4,0.4,0.7,0.8,0.6c0.2,0,0.3-0.1,0.4-0.2
		c0.1-0.1,0.2-0.3,0.2-0.5l-0.8-8.3C28.9,35.8,28.6,35.5,28.2,35.6z"/>
	<path class="st3" d="M19.7,34.1c-0.3-0.2-0.7-0.1-1,0.2l-4.6,6.9c-0.2,0.3-0.1,0.8,0.2,1c0.1,0.1,0.3,0.1,0.5,0.1
		c0.2,0,0.4-0.1,0.5-0.3l4.6-6.9C20.1,34.7,20,34.3,19.7,34.1z"/>
</g>
</svg>
