<?xml version="1.0" encoding="utf-8"?>
<!-- Generator: Adobe Illustrator 24.3.0, SVG Export Plug-In . SVG Version: 6.00 Build 0)  -->
<svg version="1.1" id="Layer_1" xmlns="http://www.w3.org/2000/svg" xmlns:xlink="http://www.w3.org/1999/xlink" x="0px" y="0px"
	 viewBox="0 0 1672 170" style="enable-background:new 0 0 1672 170;" xml:space="preserve">
<style type="text/css">
	.st0{fill:#FFFFFF;}
	.st1{fill:#15AF44;}
</style>
<path class="st0" d="M263.53,72.66l-52.02-52.02c-3.51-3.51-8.11-5.27-12.72-5.27s-9.21,1.76-12.72,5.27l-41.16,41.16
	c-2.92,2.92-7.66,2.92-10.58,0L93.17,20.64c-3.51-3.51-8.11-5.27-12.72-5.27c-4.6,0-9.21,1.76-12.72,5.27l-4.25,4.25
	c-0.73,0.73-0.73,1.91,0,2.64l76.13,76.13l0.01-0.01l46.45,46.45c3.51,3.51,8.11,5.27,12.72,5.27s9.21-1.76,12.72-5.27l52.02-52.02
	C270.55,91.07,270.55,79.68,263.53,72.66z M234.22,90.66l-30.14,30.14c-2.92,2.92-7.65,2.92-10.57,0l-30.14-30.14
	c-2.92-2.92-2.92-7.65,0-10.57l30.14-30.14c2.92-2.92,7.65-2.92,10.57,0l30.14,30.14C237.14,83.01,237.14,87.74,234.22,90.66z"/>
<path class="st1" d="M99.92,106.56l-14.07,14.07c-2.92,2.92-7.65,2.92-10.57,0L45.15,90.5c-2.92-2.92-2.92-7.65,0-10.57l25-25
	c0.73-0.73,0.73-1.91,0-2.64L54.44,36.56c-0.73-0.73-1.91-0.73-2.64,0L15.86,72.5c-7.02,7.02-7.02,18.41,0,25.43l52,52
	c3.51,3.51,8.11,5.27,12.71,5.27c4.6,0,9.2-1.76,12.71-5.27l35.94-35.94c0.73-0.73,0.73-1.91,0-2.64l-4.79-4.79
	C117.67,99.79,106.69,99.79,99.92,106.56z"/>
<path class="st0" d="M1404.33,155.37c-46.65,0-61.35-32.74-61.35-56.49s14.7-56.49,61.35-56.49l0,0c46.65,0,61.35,32.74,61.35,56.49
	S1450.98,155.37,1404.33,155.37L1404.33,155.37z M1404.33,129.01c24.88,0,31.71-17.46,31.71-30.13s-6.84-30.13-31.71-30.13l0,0
	c-24.88,0-31.71,17.46-31.71,30.13S1379.45,129.01,1404.33,129.01L1404.33,129.01z"/>
<path class="st0" d="M1325.88,75.8l10.04-16.87c0.51-0.85,0.38-1.96-0.35-2.64c-7.99-7.5-19.77-13.89-36.24-13.89
	c-46.65,0-61.35,32.74-61.35,56.49c0,23.74,14.7,56.49,61.35,56.49c18.56,0,32.27-8.7,38.79-17.76c0.5-0.7,0.5-1.65,0.03-2.37
	l-10.42-16.23c-0.68-1.05-2.11-1.3-3.1-0.54c-7.27,5.56-14.97,10.53-27.81,10.53c-19.48,0-29.2-17.46-29.2-30.13
	c0-12.66,6.83-30.13,31.71-30.13c10.38,0,18.38,3.96,23.48,7.69C1323.83,77.18,1325.24,76.88,1325.88,75.8z"/>
<g>
	<path class="st1" d="M576.69,155.37c-46.65,0-61.35-32.74-61.35-56.49s14.7-56.49,61.35-56.49l0,0c46.65,0,61.35,32.74,61.35,56.49
		S623.34,155.37,576.69,155.37L576.69,155.37z M576.69,129.01c24.88,0,31.71-17.46,31.71-30.13s-6.84-30.13-31.71-30.13l0,0
		c-24.88,0-31.71,17.46-31.71,30.13S551.82,129.01,576.69,129.01L576.69,129.01z"/>
	<path class="st1" d="M818.86,155.37c-46.65,0-61.35-32.74-61.35-56.49s14.7-56.49,61.35-56.49l0,0c46.65,0,61.35,32.74,61.35,56.49
		S865.5,155.37,818.86,155.37L818.86,155.37z M818.86,129.01c24.88,0,31.71-17.46,31.71-30.13s-6.84-30.13-31.71-30.13l0,0
		c-24.88,0-31.71,17.46-31.71,30.13S793.98,129.01,818.86,129.01L818.86,129.01z"/>
	<path class="st1" d="M422.09,75.8l10.04-16.87c0.51-0.85,0.38-1.96-0.35-2.64c-7.99-7.5-19.77-13.89-36.24-13.89
		c-46.65,0-61.35,32.74-61.35,56.49c0,23.74,14.7,56.49,61.35,56.49c18.56,0,32.27-8.7,38.79-17.76c0.5-0.7,0.5-1.65,0.03-2.37
		l-10.42-16.23c-0.68-1.05-2.11-1.3-3.1-0.54c-7.27,5.56-14.97,10.53-27.81,10.53c-19.48,0-29.2-17.46-29.2-30.13
		c0-12.66,6.83-30.13,31.71-30.13c10.38,0,18.38,3.96,23.48,7.69C420.04,77.18,421.45,76.88,422.09,75.8z"/>
	<path class="st1" d="M740.4,75.8l10.04-16.87c0.51-0.85,0.38-1.96-0.35-2.64c-7.99-7.5-19.77-13.89-36.24-13.89
		c-46.65,0-61.35,32.74-61.35,56.49c0,23.74,14.7,56.49,61.35,56.49c18.56,0,32.27-8.7,38.79-17.76c0.5-0.7,0.5-1.65,0.03-2.37
		l-10.42-16.23c-0.68-1.05-2.11-1.3-3.1-0.54c-7.27,5.56-14.97,10.53-27.81,10.53c-19.48,0-29.2-17.46-29.2-30.13
		c0-12.66,6.83-30.13,31.71-30.13c10.38,0,18.38,3.96,23.48,7.69C738.35,77.18,739.76,76.88,740.4,75.8z"/>
	<path class="st1" d="M479.13,96.87c-0.06,2.66-0.01,46.19,0,56.38c0,1.18-0.95,2.12-2.13,2.12h-28.6c-1.18,0-2.13-0.96-2.13-2.13
		V98.72c0-21.69,12.18-55.33,61.5-56.3c1.19-0.02,2.19,0.96,2.19,2.15v22.11c0,1.16-0.91,2.11-2.07,2.13
		C499.49,69,479.13,71.19,479.13,96.87z"/>
</g>
<path class="st0" d="M951.41,42.4c-7.34,0-15.68,3.13-23.66,7.41V18.34c0-1.24-1.06-2.22-2.3-2.13l-28.6,2.18
	c-1.11,0.08-1.97,1.01-1.97,2.13v53.26v70.56c0,0.88,0.53,1.66,1.34,1.98c5.16,2.06,24.91,9.06,55.19,9.06
	c42.98,0,56.53-32.74,56.53-56.49C1007.94,75.14,994.39,42.4,951.41,42.4z M949.74,129.01c-10.65,0-17.59-1.13-21.99-2.32l0-49.8
	c4.39-4.16,11.34-8.13,21.99-8.13c22.41,0,28.57,17.46,28.57,30.13C978.31,111.55,972.15,129.01,949.74,129.01z"/>
<path class="st0" d="M1202.17,150.83c0.23,1.13-0.48,2.26-1.61,2.51c-5.91,1.32-12.26,2.03-19.16,2.03
	c-29.34,0-37.78-18.51-37.78-33.97V20.51c0-1.12,0.86-2.04,1.97-2.13l28.6-2.17c1.24-0.09,2.3,0.89,2.3,2.13v21.93
	c0,1.18,0.96,2.13,2.13,2.13h17.43c1.18,0,2.13,0.96,2.13,2.13v22.09c0,1.18-0.96,2.13-2.13,2.13h-17.43
	c-1.18,0-2.13,0.94-2.13,2.12c0,7.93,0,35.78,0,43.76c0.24,15.22,6.61,17.99,19.73,16.54c1.11-0.12,2.14,0.6,2.35,1.7
	L1202.17,150.83z"/>
<path class="st0" d="M1053.96,89.28c10.39,0,25.57,0,35.59,0c5.8-0.21,9.14-3.68,9.14-8.25c0-7.06-7.19-12.27-14.34-12.27
	C1075.77,68.76,1059.29,71.02,1053.96,89.28z M1084.35,42.4c18.05,0,44.18,11.56,44.18,37.14c0,21.24-16.04,33.72-48.54,33.72l0,0
	c-6.62,0-16.75,0-23.65,0c5.99,15.1,23.98,18.08,32.38,18.08c9.31,0,17.51-2.77,26-7.08c1.12-0.57,2.49-0.07,2.96,1.09
	c2.34,5.75,4.62,11.34,6.95,17.05c0.4,0.99,0.02,2.16-0.92,2.69c-12.45,7.06-25.41,10.47-39.53,10.28v0.01
	c-46.65,0-61.19-32.74-61.19-56.49C1023,75.14,1037.7,42.4,1084.35,42.4z"/>
<circle class="st0" cx="1225.28" cy="141.45" r="13.93"/>
<path class="st0" d="M1609.79,42.4c-16.02,0-29.05,5.21-38.22,14.7c-9.18-9.49-22.2-14.7-38.22-14.7
	c-32.85,0-53.24,21.76-53.24,57.86v52.98c0,1.18,0.96,2.13,2.13,2.13h25.77c1.18,0,2.13-0.96,2.13-2.13V98.83
	c0-17.88,7.43-29.98,23.2-30.07c15.77,0.09,23.2,12.19,23.2,30.07v1.43v52.98c0,1.18,0.96,2.13,2.13,2.13h25.77
	c1.18,0,2.13-0.96,2.13-2.13v-52.98v-1.43c0-17.88,7.43-29.98,23.2-30.07c15.77,0.09,23.2,12.19,23.2,30.07v54.41
	c0,1.18,0.96,2.13,2.13,2.13h25.77c1.18,0,2.13-0.96,2.13-2.13v-52.98C1663.03,64.16,1642.63,42.4,1609.79,42.4z"/>
</svg>
